<?xml version="1.0" encoding="UTF-8"?>
<svg version="1.1" xmlns="http://www.w3.org/2000/svg" width="1024" height="1024">
<path d="M0 0 C337.92 0 675.84 0 1024 0 C1024 337.92 1024 675.84 1024 1024 C686.08 1024 348.16 1024 0 1024 C0 686.08 0 348.16 0 0 Z " fill="#3A2D71" transform="translate(0,0)"/>
<path d="M0 0 C2.02082146 -0.00417726 4.04164057 -0.00965693 6.06245536 -0.01631981 C11.59320219 -0.03074166 17.12379959 -0.02653985 22.65455449 -0.019153 C28.62811556 -0.01441555 34.60164457 -0.02693632 40.57519531 -0.03717041 C51.59411085 -0.05336039 62.61298387 -0.05580609 73.63190788 -0.05086542 C83.81435138 -0.04630226 93.99677726 -0.04691487 104.1792202 -0.05270576 C105.54686695 -0.05346264 106.9145137 -0.05421862 108.28216046 -0.05497371 C110.34327308 -0.05611895 112.40438571 -0.05726883 114.46549832 -0.05843295 C133.61972745 -0.06913286 152.77395072 -0.07386848 171.92818165 -0.06596279 C173.01047824 -0.06551703 173.01047824 -0.06551703 174.1146394 -0.06506227 C179.97337868 -0.06261352 185.83211788 -0.06000184 191.69085707 -0.05737813 C214.53812921 -0.04727785 237.38532784 -0.05562902 260.23258972 -0.07887268 C285.92378876 -0.10496756 311.61494356 -0.1177872 337.30615634 -0.11068493 C340.0476069 -0.10996891 342.78905746 -0.10929452 345.53050804 -0.10864449 C346.54296962 -0.10838977 346.54296962 -0.10838977 347.57588497 -0.10812991 C357.74741274 -0.10583071 367.91889932 -0.11378582 378.09041786 -0.12693596 C389.66378498 -0.14187212 401.23705746 -0.14228402 412.81042317 -0.12486505 C418.71203081 -0.11635849 424.61345478 -0.11419733 430.5150528 -0.1295166 C435.92426518 -0.14338359 441.3331369 -0.13857437 446.74232968 -0.11927737 C448.69242587 -0.11552325 450.64254947 -0.1184222 452.59262118 -0.12888902 C474.39193356 -0.23751506 492.99408961 4.52186875 509.02043152 20.32518005 C517.64120736 29.68164574 525.18511859 42.77167477 525.1786356 55.81544876 C525.18062665 56.70122864 525.18261769 57.58700852 525.18466908 58.49963021 C525.18175624 59.46849782 525.17884339 60.43736542 525.17584229 61.43559265 C525.17669671 62.46806555 525.17755113 63.50053844 525.17843145 64.56429839 C525.18008254 68.03441445 525.17457089 71.50448249 525.16911316 74.97459412 C525.16883118 77.45791116 525.16898923 79.94122829 525.16955566 82.42454529 C525.16978361 87.77636079 525.1669416 93.12816126 525.16131783 98.47997284 C525.15319208 106.21780019 525.1505865 113.95562165 525.14932983 121.69345281 C525.14714101 134.24745638 525.1404855 146.80145345 525.13102722 159.35545349 C525.12184873 171.55076566 525.11477003 183.74607607 525.11051941 195.94139099 C525.11025669 196.69306298 525.10999396 197.44473497 525.10972328 198.21918491 C525.10841824 201.99008831 525.10715453 205.76099173 525.10591137 209.53189516 C525.09554403 240.81716152 525.07785599 272.1024198 525.05558777 303.38768005 C511.97319191 303.43400466 498.89081553 303.46954995 485.80835438 303.4913044 C479.73375363 303.50174501 473.65920897 303.51590941 467.5846405 303.53855896 C461.72320694 303.56027724 455.86182736 303.57224659 450.00035667 303.57743454 C447.76323789 303.5811321 445.52612209 303.58835242 443.28902626 303.59914017 C440.15751874 303.61364143 437.02623475 303.61565855 433.8946991 303.61473083 C432.96825089 303.62192139 432.04180267 303.62911194 431.08728027 303.63652039 C426.57126056 303.62202759 423.19461068 303.38749578 419.05558777 301.38768005 C416.05970774 301.11462047 416.05970774 301.11462047 412.87980652 301.19236755 C411.72287292 301.19881287 410.56593933 301.20525818 409.37394714 301.2118988 C408.17576355 301.22865662 406.97757996 301.24541443 405.74308777 301.26268005 C403.91680847 301.27621521 403.91680847 301.27621521 402.05363464 301.2900238 C399.05408502 301.31354968 396.05493733 301.34642353 393.05558777 301.38768005 C393.71558777 300.39768005 394.37558777 299.40768005 395.05558777 298.38768005 C397.68236324 298.00104232 400.04672458 297.78590406 402.68058777 297.70018005 C405.11433777 297.59705505 407.54808777 297.49393005 410.05558777 297.38768005 C410.05558777 288.80768005 410.05558777 280.22768005 410.05558777 271.38768005 C427.87558777 271.38768005 445.69558777 271.38768005 464.05558777 271.38768005 C464.05558777 246.96768005 464.05558777 222.54768005 464.05558777 197.38768005 C453.16558777 197.38768005 442.27558777 197.38768005 431.05558777 197.38768005 C431.05558777 209.92768005 431.05558777 222.46768005 431.05558777 235.38768005 C406.63558777 235.38768005 382.21558777 235.38768005 357.05558777 235.38768005 C357.05558777 235.05768005 357.05558777 234.72768005 357.05558777 234.38768005 C362.66558777 234.38768005 368.27558777 234.38768005 374.05558777 234.38768005 C374.05558777 222.83768005 374.05558777 211.28768005 374.05558777 199.38768005 C385.93558777 199.38768005 397.81558777 199.38768005 410.05558777 199.38768005 C410.05558777 186.84768005 410.05558777 174.30768005 410.05558777 161.38768005 C427.54558777 161.38768005 445.03558777 161.38768005 463.05558777 161.38768005 C463.08465006 142.2167831 463.08465006 142.2167831 463.10441589 123.04588318 C463.11040507 115.23248113 463.11750734 107.41909075 463.13102722 99.60569763 C463.14185362 93.30986846 463.14786407 87.01405179 463.15046501 80.71821404 C463.15231971 78.31033061 463.15594117 75.90244791 463.16131783 73.49456978 C463.16852497 70.13478719 463.16957885 66.77505695 463.16911316 63.41526794 C463.17270844 62.40898346 463.17630371 61.40269897 463.18000793 60.36592102 C463.17863327 59.45581772 463.17725861 58.54571442 463.17584229 57.60803223 C463.17676408 56.81252488 463.17768587 56.01701754 463.1786356 55.19740391 C463.2533691 53.36629116 463.2533691 53.36629116 462.05558777 52.38768005 C460.43642852 52.27948857 458.81257989 52.24083215 457.18984985 52.22946167 C455.61013397 52.21477844 455.61013397 52.21477844 453.99850464 52.19979858 C452.8332576 52.19404312 451.66801056 52.18828766 450.467453 52.18235779 C449.24811066 52.17245819 448.02876831 52.16255859 446.7724762 52.15235901 C443.41934171 52.12610826 440.06623184 52.10427236 436.71305728 52.08435702 C433.21230388 52.06253528 429.71159444 52.03512801 426.21087646 52.00830078 C419.57752311 51.95832218 412.94414542 51.9134026 406.31074435 51.87027842 C398.76065447 51.8209501 391.2106087 51.76601569 383.66056144 51.71059883 C368.12560935 51.59669948 352.59061695 51.49061803 337.05558777 51.38768005 C337.05558777 63.26768005 337.05558777 75.14768005 337.05558777 87.38768005 C325.17558777 87.38768005 313.29558777 87.38768005 301.05558777 87.38768005 C301.05558777 100.25768005 301.05558777 113.12768005 301.05558777 126.38768005 C312.93558777 126.38768005 324.81558777 126.38768005 337.05558777 126.38768005 C337.05558777 138.59768005 337.05558777 150.80768005 337.05558777 163.38768005 C325.17558777 163.38768005 313.29558777 163.38768005 301.05558777 163.38768005 C301.05558777 175.26768005 301.05558777 187.14768005 301.05558777 199.38768005 C312.93558777 199.38768005 324.81558777 199.38768005 337.05558777 199.38768005 C337.05558777 210.93768005 337.05558777 222.48768005 337.05558777 234.38768005 C342.66558777 234.38768005 348.27558777 234.38768005 354.05558777 234.38768005 C354.05558777 234.71768005 354.05558777 235.04768005 354.05558777 235.38768005 C324.68558777 235.38768005 295.31558777 235.38768005 265.05558777 235.38768005 C265.05558777 220.20768005 265.05558777 205.02768005 265.05558777 189.38768005 C246.57558777 189.38768005 228.09558777 189.38768005 209.05558777 189.38768005 C209.05558777 210.83768005 209.05558777 232.28768005 209.05558777 254.38768005 C184.96558777 254.38768005 160.87558777 254.38768005 136.05558777 254.38768005 C136.05558777 268.57768005 136.05558777 282.76768005 136.05558777 297.38768005 C160.14558777 297.38768005 184.23558777 297.38768005 209.05558777 297.38768005 C209.05558777 283.52768005 209.05558777 269.66768005 209.05558777 255.38768005 C227.20558777 255.38768005 245.35558777 255.38768005 264.05558777 255.38768005 C264.05558777 264.95768005 264.05558777 274.52768005 264.05558777 284.38768005 C263.72558777 284.38768005 263.39558777 284.38768005 263.05558777 284.38768005 C262.43537964 291.83052684 262.43537964 291.83052684 265.05558777 298.57518005 C265.71558777 299.17330505 266.37558777 299.77143005 267.05558777 300.38768005 C265.18073273 302.26253509 261.99874493 301.51820665 259.50090027 301.52049255 C258.84354889 301.52144928 258.18619751 301.52240601 257.50892639 301.52339172 C256.11513677 301.52407351 254.72134398 301.52221935 253.32756042 301.51805115 C251.19646524 301.51271977 249.06558246 301.51798729 246.93449402 301.5243988 C245.58162897 301.52373769 244.22876405 301.52245583 242.87590027 301.52049255 C241.64113953 301.51936462 240.40637878 301.51823669 239.13420105 301.51707458 C236.05558777 301.38768005 236.05558777 301.38768005 233.05558777 300.38768005 C230.83396164 300.47778098 228.61489609 300.6340783 226.39933777 300.8212738 C215.12815248 301.65748118 203.85053516 301.49567574 192.55558777 301.45018005 C190.36418255 301.44515166 188.1727762 301.44059114 185.98136902 301.43650818 C180.67275024 301.42561642 175.36417445 301.4089859 170.05558777 301.38768005 C170.05558777 302.04768005 170.05558777 302.70768005 170.05558777 303.38768005 C89.53558777 303.38768005 9.01558777 303.38768005 -73.94441223 303.38768005 C-74.06540628 241.13400214 -74.06540628 241.13400214 -74.09089661 215.10643005 C-74.09676981 209.14939855 -74.10283114 203.19236729 -74.10920715 197.2353363 C-74.1099984 196.48876754 -74.11078965 195.74219878 -74.11160487 194.97300673 C-74.12463621 182.93603543 -74.14827849 170.89910733 -74.17587062 158.86216161 C-74.20397143 146.49977069 -74.22059836 134.13740232 -74.22667772 121.77498078 C-74.23078448 114.15287311 -74.2437334 106.53088752 -74.26816163 98.90881744 C-74.28596383 93.05431128 -74.28776608 87.19986705 -74.28373528 81.3453331 C-74.28455822 78.95088069 -74.29049367 76.55642351 -74.30202866 74.16199875 C-74.40880163 50.84765984 -74.40880163 50.84765984 -70.94441223 41.38768005 C-70.70709979 40.72703426 -70.46978735 40.06638847 -70.22528362 39.38572311 C-64.14281884 24.05581921 -52.25723425 12.77116381 -37.56941223 5.63768005 C-25.00082964 0.41585279 -13.39987359 -0.04516766 0 0 Z " fill="#FDF8F9" transform="translate(285.9444122314453,202.61231994628906)"/>
<path d="M0 0 C16.26343741 -0.04510874 32.52682163 -0.0819669 48.79030418 -0.10362434 C56.34134533 -0.11394656 63.89234491 -0.12802488 71.44335938 -0.15087891 C78.02314106 -0.17078393 84.60289266 -0.18370956 91.18270361 -0.18817699 C94.66819014 -0.19078929 98.15359055 -0.19694878 101.63904953 -0.21146011 C105.52549632 -0.22751037 109.41185809 -0.22798155 113.29833984 -0.22705078 C114.45999161 -0.23424133 115.62164337 -0.24143188 116.8184967 -0.24884033 C117.87301529 -0.246091 118.92753387 -0.24334167 120.01400757 -0.24050903 C120.93395697 -0.24235262 121.85390636 -0.24419621 122.80173302 -0.24609566 C125 0 125 0 127 2 C127.24888897 3.89595032 127.24888897 3.89595032 127.24723816 6.2512207 C127.25143265 7.14298004 127.25562714 8.03473938 127.25994873 8.95352173 C127.25151947 10.42479019 127.25151947 10.42479019 127.24291992 11.92578125 C127.24481827 12.9567392 127.24671661 13.98769714 127.24867249 15.04989624 C127.2523888 18.47084058 127.24166384 21.89157441 127.23046875 25.3125 C127.22927732 27.68139623 127.22882371 30.05029294 127.2290802 32.41918945 C127.22751385 37.38919014 127.21921264 42.35911895 127.20581055 47.32910156 C127.18882052 53.71185748 127.18499613 60.0945343 127.18575573 66.47731018 C127.18548428 71.37049113 127.18000715 76.26365466 127.17275429 81.15682983 C127.1695636 83.51085274 127.16759928 85.86487763 127.16686058 88.21890259 C127.16470126 91.50404244 127.15596581 94.78909709 127.14526367 98.07421875 C127.14571686 99.05506439 127.14617004 100.03591003 127.14663696 101.04647827 C127.14237198 101.93823761 127.13810699 102.82999695 127.13371277 103.7487793 C127.13203692 104.52601852 127.13036108 105.30325775 127.12863445 106.10404968 C127 108 127 108 126 110 C108.51 110 91.02 110 73 110 C73 122.54 73 135.08 73 148 C61.12 148 49.24 148 37 148 C37 159.55 37 171.1 37 183 C55.81 183.33 74.62 183.66 94 184 C94 171.46 94 158.92 94 146 C104.89 146 115.78 146 127 146 C127 170.42 127 194.84 127 220 C109.18 220 91.36 220 73 220 C73.33 228.58 73.66 237.16 74 246 C72.00383446 247.99616554 68.18298037 247.40983427 65.4375 247.5625 C64.72658203 247.60568359 64.01566406 247.64886719 63.28320312 247.69335938 C61.52238088 247.79971777 59.7612168 247.90038846 58 248 C59.0428336 249.27023396 59.0428336 249.27023396 61.36083984 249.08178711 C62.89538818 249.05483765 62.89538818 249.05483765 64.4609375 249.02734375 C65.57210937 249.01509766 66.68328125 249.00285156 67.828125 248.99023438 C70.18495906 248.95519334 72.54173724 248.91615725 74.8984375 248.87304688 C76.5690625 248.85661133 76.5690625 248.85661133 78.2734375 248.83984375 C79.81136963 248.81458618 79.81136963 248.81458618 81.38037109 248.78881836 C84 249 84 249 87 251 C90.1132709 251.302486 90.1132709 251.302486 93.73628235 251.2515564 C94.42473258 251.25452654 95.11318281 251.25749667 95.82249516 251.26055682 C98.13475858 251.26820956 100.44676892 251.26169765 102.7590332 251.25537109 C104.41474582 251.25812042 106.07045711 251.26179996 107.72616577 251.26634216 C111.29476515 251.27446152 114.86330184 251.27662076 118.43190956 251.27439499 C124.07527932 251.27156537 129.71852352 251.28590107 135.36186218 251.30337524 C151.41041168 251.35043475 167.45895296 251.37434212 183.50756836 251.38085938 C192.36874994 251.3846098 201.22978978 251.40263881 210.09091061 251.43595374 C215.7000209 251.45617806 221.30876591 251.45853281 226.91789782 251.44767356 C230.41015113 251.44506602 233.9021919 251.45907278 237.39439011 251.47775459 C239.01248462 251.48307624 240.63061828 251.48158022 242.24869728 251.47271919 C244.46056147 251.46158468 246.67098994 251.47504276 248.88276672 251.49447632 C250.11960362 251.49556585 251.35644053 251.49665539 252.63075733 251.49777794 C256.67691643 252.10090172 258.83034525 253.45680659 262 256 C264.9156441 260.37346615 265.56872801 263.78665994 265 269 C263.18201807 273.11438017 260.69425713 275.47709269 257 278 C253.92662918 279.00495379 251.10838504 279.1235683 247.88739014 279.12025452 C246.85536469 279.12162918 245.82333923 279.12300385 244.76004028 279.12442017 C243.63363129 279.12082489 242.50722229 279.11722961 241.34667969 279.11352539 C239.56090012 279.11374443 239.56090012 279.11374443 237.73904419 279.1139679 C234.47903726 279.11339086 231.21907333 279.10837765 227.95907497 279.10139394 C224.550457 279.09514008 221.14183816 279.09455499 217.73321533 279.09336853 C211.28055116 279.09026121 204.82790395 279.08205589 198.37524724 279.07201904 C191.02825913 279.06083931 183.68127022 279.05534276 176.33427572 279.05032361 C161.22284104 279.03987279 146.11142221 279.02228493 131 279 C131.00553076 280.42048189 131.00553076 280.42048189 131.01117325 281.86966038 C131.099976 304.913179 131.16570517 327.95667542 131.20724869 351.00032902 C131.22787288 362.14408004 131.25599086 373.28771802 131.30175781 384.43139648 C131.34162982 394.1443597 131.36743385 403.85724105 131.37635398 413.57028383 C131.38156808 418.71317361 131.39382034 423.85582917 131.42292023 428.99864388 C131.45009495 433.84050945 131.45844078 438.68204459 131.45243073 443.52397919 C131.45353004 445.29970788 131.46147166 447.07544777 131.4768219 448.85111046 C131.49678246 451.27944484 131.49191773 453.70653867 131.48101807 456.13490295 C131.49849512 457.18405627 131.49849512 457.18405627 131.51632524 458.2544046 C131.45018961 463.72155093 130.24388107 466.72055209 127 471 C119 475 119 475 101 475 C101 410.32 101 345.64 101 279 C92.09 279 83.18 279 74 279 C74 343.68 74 408.36 74 475 C60.14 475 46.28 475 32 475 C32 410.32 32 345.64 32 279 C22.43 279 12.86 279 3 279 C3 343.68 3 408.36 3 475 C-8.55 475 -20.1 475 -32 475 C-32 410.32 -32 345.64 -32 279 C-41.24 279 -50.48 279 -60 279 C-60 343.68 -60 408.36 -60 475 C-72.21 475 -84.42 475 -97 475 C-97 410.32 -97 345.64 -97 279 C-105.91 279 -114.82 279 -124 279 C-124 343.68 -124 408.36 -124 475 C-134.89 475 -145.78 475 -157 475 C-157 410.32 -157 345.64 -157 279 C-166.9 279 -176.8 279 -187 279 C-187 343.68 -187 408.36 -187 475 C-198.22 475 -209.44 475 -221 475 C-221 410.32 -221 345.64 -221 279 C-230.9 279 -240.8 279 -251 279 C-251 343.68 -251 408.36 -251 475 C-263.54 475 -276.08 475 -289 475 C-289 410.32 -289 345.64 -289 279 C-298.24 279 -307.48 279 -317 279 C-317 343.68 -317 408.36 -317 475 C-343 475 -343 475 -352 469 C-354.91910663 464.15162692 -355.43090023 459.76214475 -355.36076355 454.21083069 C-355.36332682 453.45755963 -355.3658901 452.70428858 -355.36853105 451.92819113 C-355.37344654 449.42073643 -355.35701352 446.91389274 -355.34057617 444.40649414 C-355.33972941 442.60252903 -355.34020599 440.79856289 -355.34190369 438.99459839 C-355.34276316 434.10871405 -355.32514504 429.22305141 -355.30418181 424.33721852 C-355.28540714 419.22697532 -355.28366395 414.11672684 -355.28010559 409.00645447 C-355.27078746 399.33453799 -355.24617678 389.66272345 -355.21605712 379.99085182 C-355.18250593 368.97761231 -355.16602528 357.96436789 -355.15097082 346.95108998 C-355.11962705 324.30067018 -355.06687102 301.65034081 -355 279 C-355.61607872 279.00013879 -356.23215744 279.00027758 -356.86690521 279.00042057 C-359.87676492 279.00106629 -362.88662464 279.00164235 -365.89648438 279.00219727 C-367.03526031 279.00241064 -368.17403625 279.00262402 -369.34732056 279.00284386 C-375.67657529 279.00382378 -382.00582836 279.00385653 -388.33508301 279.00233459 C-389.61695747 279.00203153 -390.89883194 279.00172846 -392.21955109 279.00141621 C-394.81278738 279.00079634 -397.40602367 279.00014964 -399.99925995 278.99947643 C-407.38234831 278.99824829 -414.76536488 279.00470589 -422.1484375 279.01904297 C-429.08266403 279.03170793 -436.01627409 279.0185754 -442.95036316 278.97153282 C-446.67992983 278.94702036 -450.40855845 278.93758859 -454.13818359 278.95532227 C-457.93156416 278.97278836 -461.72342345 278.95645666 -465.51661682 278.91632271 C-466.91668577 278.90717558 -468.31689178 278.90970551 -469.71690369 278.92530632 C-477.58288243 279.00536888 -482.84871987 278.62961624 -488.6138916 272.98170471 C-490.72374755 269.96526568 -491.40400254 267.15786703 -491.515625 263.5078125 C-490.56905328 258.90403184 -487.4950709 255.96809791 -484 253 C-481.45418528 251.72709264 -479.68573891 251.8758198 -476.8344326 251.87695217 C-475.7331809 251.87496112 -474.63192919 251.87297007 -473.49730623 251.87091869 C-472.2774832 251.87383153 -471.05766017 251.87674437 -469.8008728 251.87974548 C-467.86883104 251.87846385 -467.86883104 251.87846385 -465.89775813 251.87715632 C-462.31076994 251.87491175 -458.7238114 251.87893213 -455.13682699 251.88393438 C-451.27315869 251.88823923 -447.40949216 251.88679243 -443.54582214 251.8860321 C-436.84781877 251.88550689 -430.14982512 251.88865341 -423.45182419 251.89426994 C-413.76755232 251.9023853 -404.08328516 251.9050002 -394.39901026 251.90625793 C-378.68820469 251.9084484 -362.97740431 251.91510833 -347.26660156 251.92456055 C-332.00195339 251.93373481 -316.73730662 251.94081558 -301.47265625 251.94506836 C-300.53227809 251.94533108 -299.59189993 251.94559381 -298.62302546 251.94586449 C-293.90558429 251.9471695 -289.18814312 251.94843321 -284.47070193 251.94967639 C-245.31379766 251.96004883 -206.15689917 251.97766699 -167 252 C-167 251.34 -167 250.68 -167 250 C-159.84531657 249.24096411 -152.80958493 248.8694782 -145.6171875 248.9375 C-144.67747101 248.94128662 -143.73775452 248.94507324 -142.76956177 248.94897461 C-139.80465784 248.96104898 -136.83985806 248.97966954 -133.875 249 C-129.95573146 249.0267788 -126.03651391 249.04667471 -122.1171875 249.0625 C-121.23570038 249.07079834 -120.35421326 249.07909668 -119.4460144 249.08764648 C-114.55115688 249.10678731 -109.84832374 248.84009058 -105.00369263 248.11889648 C-102.78491912 247.98723738 -101.13176917 248.41046885 -99 249 C-96.82940968 249.08147598 -94.65647149 249.10752942 -92.484375 249.09765625 C-91.23398437 249.09443359 -89.98359375 249.09121094 -88.6953125 249.08789062 C-87.39335938 249.07951172 -86.09140625 249.07113281 -84.75 249.0625 C-83.43257812 249.05798828 -82.11515625 249.05347656 -80.7578125 249.04882812 C-77.50516259 249.03704316 -74.25260416 249.02059011 -71 249 C-71.65194336 248.30688721 -72.30388672 247.61377441 -72.97558594 246.8996582 C-75.3848583 243.44875036 -75.46947299 241.76470001 -75.390625 237.60546875 C-75.37128906 235.80239258 -75.37128906 235.80239258 -75.3515625 233.96289062 C-75.30128906 232.09407227 -75.30128906 232.09407227 -75.25 230.1875 C-75.23195313 228.92228516 -75.21390625 227.65707031 -75.1953125 226.35351562 C-75.14823916 223.23490665 -75.08249094 220.11784027 -75 217 C-74.67 217 -74.34 217 -74 217 C-73.67 212.71 -73.34 208.42 -73 204 C-91.15 204 -109.3 204 -128 204 C-128 217.86 -128 231.72 -128 246 C-152.09 246 -176.18 246 -201 246 C-201 231.81 -201 217.62 -201 203 C-176.91 203 -152.82 203 -128 203 C-128 181.55 -128 160.1 -128 138 C-109.52 138 -91.04 138 -72 138 C-72 153.18 -72 168.36 -72 184 C-48.24 183.67 -24.48 183.34 0 183 C0 171.45 0 159.9 0 148 C-11.88 148 -23.76 148 -36 148 C-36 136.12 -36 124.24 -36 112 C-24.12 112 -12.24 112 0 112 C0 99.79 0 87.58 0 75 C-11.88 75 -23.76 75 -36 75 C-36 62.13 -36 49.26 -36 36 C-24.12 36 -12.24 36 0 36 C0 24.12 0 12.24 0 0 Z " fill="#E12E32" transform="translate(623,254)"/>
<path d="M0 0 C18.48 0 36.96 0 56 0 C56.0093457 5.50171875 56.01869141 11.0034375 56.02832031 16.671875 C56.06206687 34.83672304 56.11740168 53.00145772 56.18390274 71.16621399 C56.22369936 82.18096153 56.25608872 93.19563756 56.27099609 104.21044922 C56.28400934 113.81180186 56.31096576 123.4129972 56.35461307 133.01426125 C56.37723511 138.09732247 56.39291023 143.18018963 56.39188385 148.26330566 C56.39113769 153.0502753 56.40907115 157.8368158 56.44116783 162.62367439 C56.44966811 164.37798162 56.45141588 166.13233697 56.44580269 167.88665581 C56.08682098 180.14817652 56.08682098 180.14817652 61 191 C70.42245189 197.09988204 70.42245189 197.09988204 94 196 C94 131.32 94 66.64 94 0 C103.24 0 112.48 0 122 0 C122 64.68 122 129.36 122 196 C134.54 196 147.08 196 160 196 C160 131.32 160 66.64 160 0 C169.9 0 179.8 0 190 0 C190 64.68 190 129.36 190 196 C201.22 196 212.44 196 224 196 C224 131.32 224 66.64 224 0 C233.9 0 243.8 0 254 0 C254 64.68 254 129.36 254 196 C264.89 196 275.78 196 287 196 C287 131.32 287 66.64 287 0 C295.91 0 304.82 0 314 0 C314 64.68 314 129.36 314 196 C326.21 196 338.42 196 351 196 C351 131.32 351 66.64 351 0 C360.24 0 369.48 0 379 0 C379 64.68 379 129.36 379 196 C390.55 196 402.1 196 414 196 C414 131.32 414 66.64 414 0 C423.57 0 433.14 0 443 0 C443 64.68 443 129.36 443 196 C456.86 196 470.72 196 485 196 C485 131.32 485 66.64 485 0 C493.91 0 502.82 0 512 0 C512 64.68 512 129.36 512 196 C528.80099757 196.2610198 528.80099757 196.2610198 538 191 C541.13015552 186.61645737 541.43488341 182.49367277 541.39872742 177.25515747 C541.40537424 176.49457373 541.41202107 175.73399 541.41886932 174.95035827 C541.43746085 172.41224315 541.43489667 169.87460105 541.43237305 167.33642578 C541.44139256 165.5128971 541.45172025 163.68937448 541.46325684 161.86585999 C541.49083064 156.92214205 541.5001119 151.97853915 541.50611091 147.03475428 C541.51549354 141.86572367 541.54169688 136.69677902 541.56611633 131.52780151 C541.60978799 121.74258661 541.6383309 111.95738838 541.66143972 102.17210567 C541.68848778 91.03065384 541.73239956 79.88928846 541.77772844 68.74789834 C541.87058434 45.83196651 541.94003464 22.91604312 542 0 C560.81 0 579.62 0 599 0 C599.04515597 24.89552649 599.08199452 49.79101979 599.10362434 74.68657684 C599.11393461 86.24614427 599.12799022 97.80568444 599.15087891 109.36523438 C599.17082037 119.44114465 599.18371825 129.51703519 599.18817699 139.59296465 C599.19078307 144.92751542 599.19690342 150.2620097 599.21146011 155.59654236 C599.22505591 160.61973637 599.22921858 165.64285074 599.22621536 170.6660614 C599.22676463 172.50747104 599.23073014 174.3488834 599.23841095 176.1902771 C599.24840348 178.70991552 599.24595323 181.22925563 599.24050903 183.74890137 C599.24924756 184.83454038 599.24924756 184.83454038 599.25816262 185.94211149 C599.16675517 201.66005386 591.13245469 215.50351402 580.6875 226.75 C563.93143709 242.59623144 543.92353319 244.30720032 522.11805725 244.26069641 C520.10406158 244.26372023 518.09006705 244.26761087 516.07607454 244.27228898 C510.56429678 244.28254776 505.05258422 244.28039256 499.54080117 244.27610838 C493.58773548 244.27363735 487.63468533 244.28265996 481.68162537 244.29014587 C470.02817431 244.3028839 458.37474146 244.30469351 446.72128541 244.30234561 C437.24847258 244.30051047 427.77566652 244.30227718 418.30285454 244.30657005 C416.9402313 244.30717246 415.57760806 244.30777366 414.21498482 244.30837366 C412.16146762 244.30928094 410.10795042 244.31018961 408.05443323 244.31110601 C388.97165005 244.31953087 369.88886941 244.3238744 350.80608463 244.31969929 C349.72786097 244.31946472 349.72786097 244.31946472 348.62785501 244.31922542 C344.98489239 244.31841968 341.34192978 244.31757391 337.69896717 244.31671212 C336.97550625 244.31654103 336.25204534 244.31636994 335.50666137 244.31619367 C334.04364984 244.31584701 332.5806383 244.31549848 331.11762677 244.31514808 C308.35094485 244.30979037 285.58430165 244.31772463 262.81762695 244.33618164 C237.21947577 244.35691 211.62134858 244.36762288 186.02318853 244.36360615 C183.2924461 244.36321083 180.56170367 244.36284928 177.83096123 244.36250877 C176.82244683 244.36237268 176.82244683 244.36237268 175.79355841 244.36223383 C165.65680147 244.36106928 155.52006882 244.36770523 145.38331795 244.37832069 C133.85236202 244.39038413 122.32145849 244.39164068 110.79050142 244.37953053 C104.9094216 244.37364131 99.02844608 244.3725438 93.1473732 244.38453293 C87.75929024 244.3953893 82.3713987 244.39229111 76.9833247 244.37827124 C75.03864675 244.3756237 73.09395381 244.37799264 71.14929057 244.38600711 C51.34602475 244.46192921 33.99577358 241.48875631 19.13232422 227.32788086 C8.50783729 216.70159378 -0.16850923 202.49494208 -0.25816262 187.04501969 C-0.25233693 186.31445656 -0.24651125 185.58389342 -0.24050903 184.83119202 C-0.24221788 184.03708544 -0.24392673 183.24297886 -0.24568737 182.42480844 C-0.24896644 179.77928726 -0.23800482 177.13402298 -0.22705078 174.48852539 C-0.22648632 172.58603929 -0.2268039 170.68355275 -0.22793579 168.78106689 C-0.22850896 163.6266488 -0.21676039 158.47232403 -0.20278788 153.3179276 C-0.19027459 147.92740558 -0.18910954 142.53688135 -0.18673706 137.14634705 C-0.18052406 126.94321938 -0.16411565 116.74013464 -0.14403808 106.53702587 C-0.12167351 94.91919458 -0.11068424 83.30136122 -0.10064721 71.68351376 C-0.07974928 47.7889799 -0.04307525 23.89450488 0 0 Z " fill="#FEF9F9" transform="translate(212,533)"/>
<path d="M0 0 C16.26343741 -0.04510874 32.52682163 -0.0819669 48.79030418 -0.10362434 C56.34134533 -0.11394656 63.89234491 -0.12802488 71.44335938 -0.15087891 C78.02314106 -0.17078393 84.60289266 -0.18370956 91.18270361 -0.18817699 C94.66819014 -0.19078929 98.15359055 -0.19694878 101.63904953 -0.21146011 C105.52549632 -0.22751037 109.41185809 -0.22798155 113.29833984 -0.22705078 C114.45999161 -0.23424133 115.62164337 -0.24143188 116.8184967 -0.24884033 C117.87301529 -0.246091 118.92753387 -0.24334167 120.01400757 -0.24050903 C120.93395697 -0.24235262 121.85390636 -0.24419621 122.80173302 -0.24609566 C125 0 125 0 127 2 C127.24888897 3.89595032 127.24888897 3.89595032 127.24723816 6.2512207 C127.25143265 7.14298004 127.25562714 8.03473938 127.25994873 8.95352173 C127.25432922 9.93436737 127.24870972 10.91521301 127.24291992 11.92578125 C127.24481827 12.9567392 127.24671661 13.98769714 127.24867249 15.04989624 C127.2523888 18.47084058 127.24166384 21.89157441 127.23046875 25.3125 C127.22927732 27.68139623 127.22882371 30.05029294 127.2290802 32.41918945 C127.22751385 37.38919014 127.21921264 42.35911895 127.20581055 47.32910156 C127.18882052 53.71185748 127.18499613 60.0945343 127.18575573 66.47731018 C127.18548428 71.37049113 127.18000715 76.26365466 127.17275429 81.15682983 C127.1695636 83.51085274 127.16759928 85.86487763 127.16686058 88.21890259 C127.16470126 91.50404244 127.15596581 94.78909709 127.14526367 98.07421875 C127.14594345 99.54548721 127.14594345 99.54548721 127.14663696 101.04647827 C127.14237198 101.93823761 127.13810699 102.82999695 127.13371277 103.7487793 C127.13203692 104.52601852 127.13036108 105.30325775 127.12863445 106.10404968 C127 108 127 108 126 110 C108.51 110 91.02 110 73 110 C73 122.54 73 135.08 73 148 C61.12 148 49.24 148 37 148 C37 159.55 37 171.1 37 183 C55.81 183.33 74.62 183.66 94 184 C94 171.46 94 158.92 94 146 C104.89 146 115.78 146 127 146 C127 170.42 127 194.84 127 220 C109.18 220 91.36 220 73 220 C73.33 228.58 73.66 237.16 74 246 C72.00383446 247.99616554 68.18298037 247.40983427 65.4375 247.5625 C64.72658203 247.60568359 64.01566406 247.64886719 63.28320312 247.69335938 C61.52238088 247.79971777 59.7612168 247.90038846 58 248 C59.04272564 249.2717575 59.04272564 249.2717575 61.36083984 249.06591797 C62.38387207 249.04158691 63.4069043 249.01725586 64.4609375 248.9921875 C65.57210938 248.97542969 66.68328125 248.95867187 67.828125 248.94140625 C70.18505822 248.89727865 72.54185722 248.84524643 74.8984375 248.78515625 C76.0121875 248.77097656 77.1259375 248.75679687 78.2734375 248.7421875 C79.29872559 248.7201123 80.32401367 248.69803711 81.38037109 248.67529297 C84 249 84 249 87 252 C3.18 252 -80.64 252 -167 252 C-167 251.34 -167 250.68 -167 250 C-159.84531657 249.24096411 -152.80958493 248.8694782 -145.6171875 248.9375 C-144.67747101 248.94128662 -143.73775452 248.94507324 -142.76956177 248.94897461 C-139.80465784 248.96104898 -136.83985806 248.97966954 -133.875 249 C-129.95573146 249.0267788 -126.03651391 249.04667471 -122.1171875 249.0625 C-121.23570038 249.07079834 -120.35421326 249.07909668 -119.4460144 249.08764648 C-114.55115688 249.10678731 -109.84832374 248.84009058 -105.00369263 248.11889648 C-102.78491912 247.98723738 -101.13176917 248.41046885 -99 249 C-96.82940968 249.08147598 -94.65647149 249.10752942 -92.484375 249.09765625 C-91.23398437 249.09443359 -89.98359375 249.09121094 -88.6953125 249.08789062 C-87.39335938 249.07951172 -86.09140625 249.07113281 -84.75 249.0625 C-83.43257812 249.05798828 -82.11515625 249.05347656 -80.7578125 249.04882812 C-77.50516259 249.03704316 -74.25260416 249.02059011 -71 249 C-71.97791504 247.96033081 -71.97791504 247.96033081 -72.97558594 246.8996582 C-75.3848583 243.44875036 -75.46947299 241.76470001 -75.390625 237.60546875 C-75.37773438 236.40341797 -75.36484375 235.20136719 -75.3515625 233.96289062 C-75.31804687 232.71701172 -75.28453125 231.47113281 -75.25 230.1875 C-75.23195313 228.92228516 -75.21390625 227.65707031 -75.1953125 226.35351562 C-75.14823916 223.23490665 -75.08249094 220.11784027 -75 217 C-74.67 217 -74.34 217 -74 217 C-73.505 210.565 -73.505 210.565 -73 204 C-91.15 204 -109.3 204 -128 204 C-128 217.86 -128 231.72 -128 246 C-152.09 246 -176.18 246 -201 246 C-201 231.81 -201 217.62 -201 203 C-176.91 203 -152.82 203 -128 203 C-128 181.55 -128 160.1 -128 138 C-109.52 138 -91.04 138 -72 138 C-72 153.18 -72 168.36 -72 184 C-48.24 183.67 -24.48 183.34 0 183 C0 171.45 0 159.9 0 148 C-11.88 148 -23.76 148 -36 148 C-36 136.12 -36 124.24 -36 112 C-24.12 112 -12.24 112 0 112 C0 99.79 0 87.58 0 75 C-11.88 75 -23.76 75 -36 75 C-36 62.13 -36 49.26 -36 36 C-24.12 36 -12.24 36 0 36 C0 24.12 0 12.24 0 0 Z " fill="#1F1E45" transform="translate(623,254)"/>
<path d="M0 0 C1.28233017 -0.00686325 2.56466034 -0.0137265 3.885849 -0.02079773 C7.38394237 -0.03865609 10.88178388 -0.03757451 14.37990904 -0.03185534 C17.30958801 -0.02875231 20.23921938 -0.0348684 23.16889155 -0.04089409 C30.08577963 -0.05491415 37.00254414 -0.05339958 43.91943359 -0.04199219 C51.03364217 -0.03051798 58.14747346 -0.04458039 65.26163232 -0.07138866 C71.38931459 -0.0936073 77.51687895 -0.10016909 83.6445986 -0.09431225 C87.2957136 -0.09095558 90.94658692 -0.09327083 94.59766769 -0.11056328 C98.67342439 -0.12902656 102.74845615 -0.11478231 106.82421875 -0.09765625 C108.01934586 -0.10732422 109.21447296 -0.11699219 110.44581604 -0.12695312 C121.18937201 -0.03272622 129.2019231 2.69708978 137.06103516 10.11108398 C142.08636561 15.92936599 145.15410937 22.98829352 145.18867493 30.6640625 C145.19940788 32.29978462 145.19940788 32.29978462 145.21035767 33.96855164 C145.21304657 35.16543106 145.21573547 36.36231049 145.21850586 37.59545898 C145.22507706 38.85594559 145.23164825 40.11643219 145.23841858 41.41511536 C145.25944845 45.5989149 145.26982462 49.78271473 145.27978516 53.96655273 C145.28383407 55.40976989 145.28795103 56.85298685 145.29213524 58.29620361 C145.31118993 65.08200478 145.32541654 71.86779509 145.33374721 78.65361786 C145.3435005 86.46817608 145.36976855 94.28244961 145.4102481 102.09690762 C145.44050484 108.14719846 145.45522537 114.19740819 145.45852822 120.24777317 C145.46086919 123.85599467 145.46970299 127.46391217 145.4949894 131.072052 C145.52281107 135.10737699 145.51840998 139.14207514 145.51147461 143.17749023 C145.5306897 144.9485186 145.5306897 144.9485186 145.55029297 146.75532532 C145.488102 156.72405481 143.25033067 165.74174655 136.87744141 173.61889648 C128.0681523 182.18452441 118.28972409 183.70384788 106.52539062 183.71044922 C105.26607224 183.71877274 104.00675385 183.72709625 102.70927429 183.735672 C99.26470981 183.75755074 95.82023407 183.7664075 92.37560797 183.77149844 C90.21828136 183.77515141 88.06097765 183.78139647 85.90365982 183.78849983 C78.36203245 183.81297624 70.82047363 183.82604125 63.27880859 183.82958984 C56.27483169 183.83321852 49.27129476 183.86307012 42.26745212 183.90499443 C36.2349067 183.93982448 30.20250612 183.95514051 24.16986096 183.95583588 C20.57556928 183.95662472 16.98172572 183.965179 13.38753891 183.99383354 C9.3693783 184.02515261 5.35224793 184.01589433 1.33398438 184.00341797 C-0.42458138 184.0256694 -0.42458138 184.0256694 -2.21867371 184.04837036 C-11.38832859 183.96771916 -19.82729516 181.70057063 -27.33349609 176.21655273 C-36.49162267 166.40427426 -38.25901879 156.789113 -38.24902344 143.83447266 C-38.25574066 142.58154922 -38.26245789 141.32862579 -38.26937866 140.03773499 C-38.28507806 136.61602505 -38.29173113 133.19455791 -38.29301023 129.77282882 C-38.29443632 127.63042088 -38.29871456 125.48803804 -38.30400467 123.34563637 C-38.32248257 115.85817486 -38.33067813 108.37078434 -38.32910156 100.88330078 C-38.32790088 93.92533595 -38.34899434 86.96768166 -38.38058889 80.00979537 C-38.40681812 74.01802538 -38.41746608 68.02635641 -38.41619074 62.03452951 C-38.41568304 58.46386386 -38.421259 54.89347443 -38.44254684 51.32286644 C-38.4656718 47.33563693 -38.45636797 43.34909493 -38.44433594 39.36181641 C-38.45557495 38.19317047 -38.46681396 37.02452454 -38.47839355 35.82046509 C-38.40545909 26.27896533 -36.11368551 17.89009391 -29.95849609 10.40405273 C-20.56333479 1.77166691 -12.47790821 -0.04684147 0 0 Z " fill="#201F47" transform="translate(304.95849609375,253.595947265625)"/>
<path d="M0 0 C18.48 0 36.96 0 56 0 C56 15.18 56 30.36 56 46 C61.78273438 45.91621094 67.56546875 45.83242188 73.5234375 45.74609375 C81.47389057 45.63764855 89.42441486 45.53576395 97.375 45.4375 C98.40436172 45.42476673 99.43372345 45.41203346 100.49427795 45.39891434 C130.58728626 45.03198476 160.65814914 44.95863797 190.75 45.4375 C191.9591872 45.45672075 191.9591872 45.45672075 193.19280243 45.4763298 C202.79566955 45.63075212 212.39767322 45.81177586 222 46 C222 33.46 222 20.92 222 8 C232.89 8 243.78 8 255 8 C255 32.42 255 56.84 255 82 C237.18 82 219.36 82 201 82 C201.33 90.58 201.66 99.16 202 108 C200.00383446 109.99616554 196.18298037 109.40983427 193.4375 109.5625 C192.72658203 109.60568359 192.01566406 109.64886719 191.28320312 109.69335938 C189.52238088 109.79971777 187.7612168 109.90038846 186 110 C187.04272564 111.2717575 187.04272564 111.2717575 189.36083984 111.06591797 C190.38387207 111.04158691 191.4069043 111.01725586 192.4609375 110.9921875 C193.57210938 110.97542969 194.68328125 110.95867187 195.828125 110.94140625 C198.18505822 110.89727865 200.54185722 110.84524643 202.8984375 110.78515625 C204.0121875 110.77097656 205.1259375 110.75679688 206.2734375 110.7421875 C207.29872559 110.7201123 208.32401367 110.69803711 209.38037109 110.67529297 C212 111 212 111 215 114 C131.18 114 47.36 114 -39 114 C-39 113.34 -39 112.68 -39 112 C-31.84531657 111.24096411 -24.80958493 110.8694782 -17.6171875 110.9375 C-16.67747101 110.94128662 -15.73775452 110.94507324 -14.76956177 110.94897461 C-11.80465784 110.96104898 -8.83985806 110.97966954 -5.875 111 C-1.95573146 111.0267788 1.96348609 111.04667471 5.8828125 111.0625 C6.76429962 111.07079834 7.64578674 111.07909668 8.5539856 111.08764648 C13.44884312 111.10678731 18.15167626 110.84009058 22.99630737 110.11889648 C25.21508088 109.98723738 26.86823083 110.41046885 29 111 C31.17059032 111.08147598 33.34352851 111.10752942 35.515625 111.09765625 C37.39121094 111.09282227 37.39121094 111.09282227 39.3046875 111.08789062 C40.60664062 111.07951172 41.90859375 111.07113281 43.25 111.0625 C44.56742188 111.05798828 45.88484375 111.05347656 47.2421875 111.04882812 C50.49483741 111.03704316 53.74739584 111.02059011 57 111 C56.02208496 109.96033081 56.02208496 109.96033081 55.02441406 108.8996582 C52.6151417 105.44875036 52.53052701 103.76470001 52.609375 99.60546875 C52.62226562 98.40341797 52.63515625 97.20136719 52.6484375 95.96289062 C52.68195313 94.71701172 52.71546875 93.47113281 52.75 92.1875 C52.76804687 90.92228516 52.78609375 89.65707031 52.8046875 88.35351562 C52.85176084 85.23490665 52.91750906 82.11784027 53 79 C53.33 79 53.66 79 54 79 C54.33 74.71 54.66 70.42 55 66 C36.85 66 18.7 66 0 66 C0 79.86 0 93.72 0 108 C-24.09 108 -48.18 108 -73 108 C-73 93.81 -73 79.62 -73 65 C-48.91 65 -24.82 65 0 65 C0 43.55 0 22.1 0 0 Z " fill="#FDE8EA" transform="translate(495,392)"/>
<path d="M0 0 C6.0559461 2.68257689 9.36390667 6.95645768 11.72650146 13.04563904 C12.7470753 16.58110036 12.93349311 19.48200483 12.93847656 23.15649414 C12.94373352 24.13598022 12.94373352 24.13598022 12.94909668 25.13525391 C12.95785096 27.28038379 12.95208255 29.4251796 12.9453125 31.5703125 C12.9466621 33.07759158 12.94860508 34.58487023 12.95111084 36.09214783 C12.95405455 39.25019478 12.94979298 42.40812838 12.94042969 45.56616211 C12.92910426 49.57799227 12.93555519 53.58955271 12.94757462 57.60137272 C12.95487259 60.71670994 12.95246813 63.83198546 12.94731903 66.94732475 C12.94600076 68.42422964 12.94756498 69.90114045 12.95227814 71.37803841 C13.02804033 101.81936845 2.83654585 129.18863233 -18.5078125 151.09765625 C-40.01109018 172.26727882 -68.57733273 181.63299358 -98.30859375 181.68359375 C-99.70574572 181.69004361 -101.10289642 181.69677346 -102.50004578 181.70376587 C-105.4018365 181.71562525 -108.30350909 181.71945775 -111.20532227 181.71826172 C-114.90490351 181.71805731 -118.60372719 181.74553481 -122.30312824 181.77980614 C-125.17806937 181.8021235 -128.05282805 181.80609806 -130.92784691 181.80504227 C-132.94848204 181.80851199 -134.96906027 181.83010877 -136.98957825 181.85214233 C-145.22400045 181.81123984 -151.01252506 181.14864517 -157.37890625 175.53125 C-157.83394531 174.95503906 -158.28898438 174.37882813 -158.7578125 173.78515625 C-159.23089844 173.20636719 -159.70398438 172.62757813 -160.19140625 172.03125 C-163.61231655 166.9294772 -162.71062175 160.20952292 -162.3203125 154.34765625 C-160.63655533 149.1093006 -157.74899053 146.53630443 -153.3203125 143.34765625 C-149.74065257 141.64337477 -146.90871916 141.09482119 -142.95776367 141.07641602 C-141.90864304 141.0662294 -140.8595224 141.05604279 -139.77861023 141.04554749 C-138.08802238 141.04233742 -138.08802238 141.04233742 -136.36328125 141.0390625 C-133.94596142 141.01387464 -131.52864377 140.98847709 -129.11132812 140.96289062 C-125.32463294 140.93433482 -121.53797619 140.9103072 -117.7512207 140.89135742 C-89.98757316 140.72545737 -67.82897348 138.21911684 -47.0546875 118.18359375 C-43.2313606 114.21825756 -40.1420075 110.0690276 -37.3203125 105.34765625 C-36.93488281 104.70570313 -36.54945313 104.06375 -36.15234375 103.40234375 C-29.0090757 90.32003674 -28.1905855 76.5720859 -28.14453125 62.03125 C-28.13408685 60.64697013 -28.12266096 59.26269736 -28.11030579 57.87843323 C-28.05823701 52.03657986 -28.00984853 46.19486412 -27.99438477 40.3527832 C-27.98426916 36.76416441 -27.95487136 33.17613887 -27.91306496 29.5877552 C-27.89490036 27.57220694 -27.89739316 25.5565063 -27.90031433 23.5408783 C-27.79422133 15.59588911 -27.24065447 10.63062985 -21.7578125 4.640625 C-14.83964011 -0.67959996 -8.67075957 -2.4377388 0 0 Z " fill="#241F49" transform="translate(876.3203125,667.65234375)"/>
<path d="M0 0 C5.65497762 3.37123666 9.14691462 7.69933522 11.25 13.9375 C11.5015564 16.94345093 11.5015564 16.94345093 11.50537109 20.32568359 C11.51233002 21.59826019 11.51928894 22.87083679 11.52645874 24.18197632 C11.5257777 24.85802288 11.52509666 25.53406944 11.52439499 26.23060226 C11.52342236 28.36922419 11.5364634 30.50735341 11.55337524 32.64590454 C11.59938709 38.72467098 11.62418281 44.8033895 11.63085938 50.88232422 C11.63593883 54.61011713 11.66051746 58.33740215 11.69618607 62.06502151 C11.70584735 63.4704645 11.70839261 64.87597865 11.70301437 66.28144455 C11.62683227 87.19443927 18.87876441 105.6143236 33.25 120.9375 C47.57620887 134.17717056 65.42369242 140.40885832 84.6953125 140.30859375 C87.26172015 140.32596604 89.82812637 140.34355052 92.39453125 140.36132812 C96.39472443 140.37141099 100.3948191 140.37499292 104.39501953 140.37329102 C108.28705153 140.37686869 112.17840228 140.40422635 116.0703125 140.43359375 C117.25803253 140.42541122 118.44575256 140.4172287 119.66946411 140.40879822 C127.60104007 140.47955056 134.23790693 141.49233313 140.40625 146.7890625 C140.8496875 147.37429688 141.293125 147.95953125 141.75 148.5625 C142.2140625 149.15289063 142.678125 149.74328125 143.15625 150.3515625 C146.53918322 155.25681567 145.95225554 161.21913349 145.25 166.9375 C142.77668601 172.40617695 138.53658761 176.18847444 133.25 178.9375 C126.06530256 181.26283994 119.1601981 181.2437732 111.65234375 181.23828125 C110.34527969 181.24256638 109.03821564 181.2468515 107.69154358 181.25126648 C104.93047009 181.2586969 102.16952449 181.25846285 99.40844727 181.25317383 C95.91466011 181.24741517 92.42140934 181.26423739 88.92771053 181.2875185 C85.54423575 181.30603677 82.16086851 181.30206512 78.77734375 181.30078125 C77.54555893 181.309991 76.31377411 181.31920074 75.04466248 181.32868958 C45.00581983 181.17202553 19.23793182 167.83699952 -1.75 146.9375 C-26.11582482 120.98446476 -28.29679113 88.38535982 -28.19604492 54.6640625 C-28.18445157 50.59705351 -28.20498316 46.53089959 -28.23396206 42.46400261 C-28.25236993 39.2947755 -28.25202454 36.12575294 -28.24632454 32.95648575 C-28.24617251 31.45672513 -28.25211718 29.9569496 -28.26461601 28.45724106 C-28.33075993 19.24168755 -28.11302057 11.11682765 -21.93359375 3.78125 C-21.35738281 3.3378125 -20.78117188 2.894375 -20.1875 2.4375 C-19.60871094 1.9734375 -19.02992188 1.509375 -18.43359375 1.03125 C-13.01033978 -2.49197764 -5.93131949 -1.68054052 0 0 Z " fill="#29224F" transform="translate(159.75,668.0625)"/>
<path d="M0 0 C0.68663223 -0.00817749 1.37326447 -0.01635498 2.08070374 -0.02478027 C4.3538426 -0.0495944 6.62691889 -0.06614542 8.90014648 -0.08056641 C10.06881413 -0.08855192 10.06881413 -0.08855192 11.26109123 -0.09669876 C15.38987111 -0.12342085 19.51862095 -0.14279345 23.64746094 -0.15722656 C27.0510568 -0.17053041 30.45404808 -0.19831743 33.85742188 -0.23925781 C37.97826096 -0.2888218 42.0985545 -0.31337708 46.21967888 -0.32045364 C47.78285618 -0.32712943 49.34602308 -0.3422548 50.90902901 -0.36634445 C59.89537164 -0.4968754 67.60165323 -0.266164 75.20874023 5.19287109 C77.46264648 7.57958984 77.46264648 7.57958984 78.77124023 9.88037109 C79.2262793 10.64736328 79.68131836 11.41435547 80.15014648 12.20458984 C82.20673993 16.06734284 82.3563112 18.51624932 82.40161133 22.96240234 C82.41387756 24.00676201 82.41387756 24.00676201 82.4263916 25.07221985 C82.45125842 27.38326157 82.46777195 29.69424144 82.48217773 32.00537109 C82.48750141 32.7964325 82.49282509 33.5874939 82.49831009 34.40252686 C82.52505749 38.59614086 82.54442029 42.78972505 82.55883789 46.98339844 C82.5721343 50.44232889 82.59990371 53.90066338 82.64086914 57.359375 C82.69042868 61.54389855 82.71498838 65.72788475 82.72206497 69.91268921 C82.72874308 71.50098532 82.74387465 73.08927109 82.76795578 74.67739868 C82.89631677 83.66115075 82.81864807 91.65726493 77.20874023 99.19287109 C71.26861237 104.91690233 64.36358687 106.43584535 56.20703125 106.4675293 C55.54586304 106.47264023 54.88469482 106.47775116 54.20349121 106.48301697 C52.03978162 106.49680246 49.87639449 106.49596475 47.71264648 106.49365234 C46.19481795 106.49754514 44.6769905 106.501881 43.15916443 106.50663757 C39.98611918 106.51407588 36.81318525 106.51382578 33.64013672 106.50854492 C29.590765 106.5027511 25.5418508 106.51969049 21.49255466 106.5428896 C18.36025873 106.55767998 15.22807167 106.5584915 12.09574699 106.55537987 C10.60353629 106.55589034 9.11131904 106.56107618 7.61914253 106.57119179 C-8.92896687 106.66962566 -8.92896687 106.66962566 -15.99829102 101.61474609 C-16.5280957 101.06302734 -17.05790039 100.51130859 -17.60375977 99.94287109 C-18.14645508 99.40146484 -18.68915039 98.86005859 -19.24829102 98.30224609 C-23.06684991 93.08193774 -24.16754706 88.33974031 -24.21118164 81.94750977 C-24.21965118 81.26029343 -24.22812073 80.57307709 -24.23684692 79.86503601 C-24.26007314 77.61344427 -24.26124243 75.36254187 -24.26000977 73.11083984 C-24.26712119 71.5305403 -24.27482161 69.9502433 -24.28308105 68.36994934 C-24.2964937 65.06402404 -24.29810972 61.75833739 -24.29223633 58.45239258 C-24.28634995 54.23926941 -24.31690152 50.02730248 -24.35735321 45.81440258 C-24.3833491 42.55159966 -24.38609683 39.28907055 -24.38246155 36.02617836 C-24.38414241 34.4741965 -24.39368419 32.92220056 -24.41160583 31.37032127 C-24.50357541 22.42098405 -24.19403241 14.77619624 -18.79125977 7.19287109 C-16.43969727 4.93896484 -16.43969727 4.93896484 -14.16625977 3.63037109 C-13.03317383 2.9478125 -13.03317383 2.9478125 -11.87719727 2.25146484 C-7.80252161 0.1836051 -4.51960437 0.04678934 0 0 Z " fill="#FDFDFD" transform="translate(329.791259765625,291.80712890625)"/>
<path d="M0 0 C1.25570801 -0.00630432 2.51141602 -0.01260864 3.80517578 -0.019104 C5.16569153 -0.01552071 6.526206 -0.01141789 7.88671875 -0.00683594 C9.30192125 -0.00818593 10.71712329 -0.01012924 12.13232422 -0.01263428 C15.09786395 -0.01557752 18.06328295 -0.0113189 21.02880859 -0.00195312 C24.78944195 0.00935735 28.5497871 0.00293077 32.31040955 -0.00909805 C35.23620678 -0.01641028 38.16193856 -0.013985 41.08773804 -0.00884247 C42.47171057 -0.00752729 43.85568945 -0.009077 45.23965454 -0.01380157 C57.58258233 -0.04665617 69.78648847 0.78397111 81.51171875 4.88378906 C82.26404785 5.14248779 83.01637695 5.40118652 83.79150391 5.66772461 C109.95310228 15.02847347 131.28935325 33.98130799 143.23046875 59.09082031 C149.4079569 73.65460778 151.88594013 87.23045734 151.875 103.05175781 C151.87889855 104.45176823 151.88323555 105.85177749 151.88798523 107.25178528 C151.89539023 110.16553612 151.89519633 113.07916564 151.88989258 115.99291992 C151.88407784 119.70813249 151.90110453 123.42284977 151.92423725 127.13798046 C151.93902844 130.02149812 151.93983949 132.90489755 151.93672752 135.78844643 C151.93723712 137.15785014 151.94240619 138.52726111 151.95253944 139.89662743 C152.01005943 148.7471947 151.58740866 155.3484055 146.88671875 163.00878906 C142.22019949 167.54918618 137.59476006 169.49571418 131.07421875 169.82128906 C124.13384111 169.55175983 119.93635181 166.68308352 115.19921875 161.82128906 C111.0887956 155.33946794 111.28029917 149.00712087 111.265625 141.57128906 C111.24044644 139.23925551 111.21504871 136.90722432 111.18945312 134.57519531 C111.16085301 130.92660236 111.13681852 127.27805071 111.11791992 123.62939453 C111.21305963 99.67919859 111.21305963 99.67919859 103.57421875 77.25878906 C103.15398437 76.46085937 102.73375 75.66292969 102.30078125 74.84082031 C96.43579686 64.39077907 88.74548212 56.53106814 78.57421875 50.25878906 C77.7440625 49.72382813 76.91390625 49.18886719 76.05859375 48.63769531 C59.07254798 38.44098221 40.17364534 39.71168184 21.07421875 39.75878906 C16.98410367 39.76880085 12.8943906 39.77408704 8.80432129 39.74890137 C6.2756286 39.73500178 3.74676187 39.73839752 1.21813965 39.76184082 C-6.26501421 39.71750281 -12.35858125 39.24458738 -17.97497559 33.74060059 C-22.84998561 28.09831122 -22.77012606 23.972797 -22.703125 16.68457031 C-22.22659327 10.79839671 -19.65503807 8.43459994 -15.55078125 4.50878906 C-10.53866162 0.90006293 -6.10930368 0.008844 0 0 Z " fill="#2B2352" transform="translate(737.42578125,122.7412109375)"/>
<path d="M0 0 C1.48729575 -0.00644478 2.97459029 -0.01317432 4.46188354 -0.02017212 C7.55974264 -0.03206405 10.65749083 -0.03586089 13.75537109 -0.03466797 C17.70375606 -0.03446415 21.65142642 -0.06186676 25.5996418 -0.09621239 C28.66420704 -0.11854967 31.72860131 -0.12250359 34.79323959 -0.12144852 C36.2483557 -0.12379033 37.70347754 -0.13253281 39.15851212 -0.14811325 C48.86448882 -0.24240687 56.5443433 0.35184881 64.2421875 6.7109375 C68.48859679 11.95650192 69.94051537 16.11140554 69.71875 22.8046875 C68.97897481 28.13106889 66.75845526 31.94466974 62.9921875 35.7109375 C58.2455684 38.64932075 53.86293107 39.58450715 48.32446289 39.59130859 C47.15206558 39.59826752 45.97966827 39.60522644 44.77174377 39.61239624 C42.88732826 39.61090073 42.88732826 39.61090073 40.96484375 39.609375 C38.96230696 39.62447849 36.95977006 39.63960608 34.95724392 39.65606117 C30.04861576 39.69358667 25.13996139 39.71092926 20.23120117 39.71679688 C17.47406191 39.7208849 14.71733623 39.73567985 11.96031189 39.76113892 C9.37801889 39.78423534 6.79552486 39.79210967 4.21315002 39.78158569 C-13.94955033 39.98220445 -31.25609835 46.17496973 -44.42578125 58.9296875 C-57.9636011 73.68950525 -64.09087447 89.80608044 -64.0390625 109.6953125 C-64.04989868 110.9245343 -64.06073486 112.1537561 -64.07189941 113.42022705 C-64.11739337 118.62630696 -64.12925068 123.83233123 -64.14404297 129.03857422 C-64.15976478 132.86183185 -64.19275448 136.68467887 -64.2265625 140.5078125 C-64.22354126 141.67568298 -64.22052002 142.84355347 -64.21740723 144.04681396 C-64.28466421 151.37608354 -64.62024096 157.7949512 -69.5703125 163.61328125 C-70.2509375 164.16113281 -70.9315625 164.70898438 -71.6328125 165.2734375 C-72.3134375 165.83933594 -72.9940625 166.40523437 -73.6953125 166.98828125 C-78.21354577 170.13100399 -83.34941012 169.89950042 -88.6328125 169.3359375 C-93.90686137 167.68274331 -97.75580217 165.13095471 -100.6328125 160.3359375 C-103.99145939 152.96629958 -104.08554766 145.8045461 -104.06640625 137.81640625 C-104.0716481 136.52261551 -104.07688995 135.22882477 -104.08229065 133.89582825 C-104.09118472 131.16165377 -104.08884897 128.42777177 -104.07885742 125.69360352 C-104.06973465 122.93287626 -104.07642836 120.17299971 -104.09936523 117.41235352 C-104.36625707 85.15270294 -99.92663664 57.08553573 -77.6328125 32.3359375 C-76.93542969 31.55605469 -76.23804688 30.77617187 -75.51953125 29.97265625 C-69.59238005 23.69876129 -62.8191199 19.0145692 -55.6328125 14.3359375 C-54.84519531 13.7790625 -54.05757812 13.2221875 -53.24609375 12.6484375 C-37.86571652 2.34116899 -18.01399576 0.01855648 0 0 Z " fill="#2F2659" transform="translate(235.6328125,122.6640625)"/>
<path d="M0 0 C13.86 0 27.72 0 42 0 C42 64.68 42 129.36 42 196 C28.14 196 14.28 196 0 196 C0 131.32 0 66.64 0 0 Z " fill="#211D42" transform="translate(655,533)"/>
<path d="M0 0 C18.48 0 36.96 0 56 0 C56 15.18 56 30.36 56 46 C79.1 46 102.2 46 126 46 C126 66.13 126 86.26 126 107 C102.9 107 79.8 107 56 107 C56 93.14 56 79.28 56 65 C37.52 65 19.04 65 0 65 C0 43.55 0 22.1 0 0 Z " fill="#231D41" transform="translate(495,392)"/>
<path d="M0 0 C12.54 0 25.08 0 38 0 C38 64.68 38 129.36 38 196 C25.46 196 12.92 196 0 196 C0 131.32 0 66.64 0 0 Z " fill="#211D42" transform="translate(334,533)"/>
<path d="M0 0 C12.54 0 25.08 0 38 0 C38 64.68 38 129.36 38 196 C12 196 12 196 3 190 C0.08089337 185.15162692 -0.43090023 180.76214475 -0.36076355 175.21083069 C-0.36332682 174.45755963 -0.3658901 173.70428858 -0.36853105 172.92819113 C-0.37344654 170.42073643 -0.35701352 167.91389274 -0.34057617 165.40649414 C-0.33972941 163.60252903 -0.34020599 161.79856289 -0.34190369 159.99459839 C-0.34276316 155.10871405 -0.32514504 150.22305141 -0.30418181 145.33721852 C-0.28540714 140.22697532 -0.28366395 135.11672684 -0.28010559 130.00645447 C-0.27078746 120.33453799 -0.24617678 110.66272345 -0.21605712 100.99085182 C-0.18250593 89.97761231 -0.16602528 78.96436789 -0.15097082 67.95108998 C-0.11962704 45.30065715 -0.06461781 22.65036403 0 0 Z " fill="#231E44" transform="translate(268,533)"/>
<path d="M0 0 C12.21 0 24.42 0 37 0 C37 64.68 37 129.36 37 196 C24.79 196 12.58 196 0 196 C0 131.32 0 66.64 0 0 Z " fill="#221E43" transform="translate(526,533)"/>
<path d="M0 0 C11.55 0 23.1 0 35 0 C35 64.68 35 129.36 35 196 C23.45 196 11.9 196 0 196 C0 131.32 0 66.64 0 0 Z " fill="#201D41" transform="translate(591,533)"/>
<path d="M0 0 C10.89 0 21.78 0 33 0 C33 64.68 33 129.36 33 196 C22.11 196 11.22 196 0 196 C0 131.32 0 66.64 0 0 Z " fill="#211C42" transform="translate(466,533)"/>
<path d="M0 0 C10.89 0 21.78 0 33 0 C33 64.68 33 129.36 33 196 C22.11 196 11.22 196 0 196 C0 131.32 0 66.64 0 0 Z " fill="#211D42" transform="translate(402,533)"/>
<path d="M0 0 C9.9 0 19.8 0 30 0 C30.09260014 24.00007646 30.16398066 48.00010987 30.20724869 72.00032902 C30.22787288 83.14408004 30.25599086 94.28771802 30.30175781 105.43139648 C30.34162982 115.1443597 30.36743385 124.85724105 30.37635398 134.57028383 C30.38156808 139.71317361 30.39382034 144.85582917 30.42292023 149.99864388 C30.45009495 154.84050945 30.45844078 159.68204459 30.45243073 164.52397919 C30.45353004 166.29970788 30.46147166 168.07544777 30.4768219 169.85111046 C30.49678246 172.27944484 30.49191773 174.70653867 30.48101807 177.13490295 C30.49266943 177.8343385 30.5043208 178.53377404 30.51632524 179.2544046 C30.45018961 184.72155093 29.24388107 187.72055209 26 192 C18 196 18 196 0 196 C0 131.32 0 66.64 0 0 Z " fill="#211D42" transform="translate(724,533)"/>
<path d="M0 0 C10.89 0 21.78 0 33 0 C33 24.42 33 48.84 33 74 C14.85 74 -3.3 74 -22 74 C-22 82.25 -22 90.5 -22 99 C-33.22 99 -44.44 99 -56 99 C-56 78.87 -56 58.74 -56 38 C-37.52 38 -19.04 38 0 38 C0 25.46 0 12.92 0 0 Z " fill="#231F44" transform="translate(717,400)"/>
<path d="M0 0 C18.15 0 36.3 0 55 0 C55 24.42 55 48.84 55 74 C36.85 74 18.7 74 0 74 C0 49.58 0 25.16 0 0 Z " fill="#1E1E45" transform="translate(496,254)"/>
<path d="M0 0 C23.76 0 47.52 0 72 0 C72 13.86 72 27.72 72 42 C48.24 42 24.48 42 0 42 C0 28.14 0 14.28 0 0 Z " fill="#2F1D3F" transform="translate(422,458)"/>
<path d="M0 0 C12.87 0 25.74 0 39 0 C39 14.19 39 28.38 39 43 C26.13 43 13.26 43 0 43 C0 28.81 0 14.62 0 0 Z " fill="#2E1E3E" transform="translate(339,457)"/>
<path d="M0 0 C0.33 0 0.66 0 1 0 C1.04632061 8.16235313 1.08186773 16.32465143 1.10362434 24.48710346 C1.11406591 28.27717541 1.12823182 32.0671575 1.15087891 35.85717773 C1.17259413 39.51409477 1.18456582 43.17092531 1.18975449 46.82790184 C1.19345263 48.22377064 1.20067411 49.61963466 1.21146011 51.01546669 C1.22595663 52.96900449 1.22681676 54.92262913 1.22705078 56.8762207 C1.231492 57.9887471 1.23593323 59.1012735 1.24050903 60.24751282 C1 63 1 63 -1 66 C0.25554687 65.83628906 1.51109375 65.67257812 2.8046875 65.50390625 C11.2189037 64.66248463 19.67926045 64.89485288 28.125 64.9375 C29.86197788 64.94252485 31.59895716 64.94708602 33.3359375 64.95117188 C37.55732688 64.96209986 41.77864764 64.97931022 46 65 C46 64.34 46 63.68 46 63 C43.69 63 41.38 63 39 63 C38.01 61.02 38.01 61.02 37 59 C37.33 58.67 37.66 58.34 38 58 C38.12330088 56.1903226 38.17790183 54.37592163 38.20532227 52.56225586 C38.22526749 51.40112778 38.24521271 50.23999969 38.26576233 49.04368591 C38.28247482 47.780168 38.29918732 46.51665009 38.31640625 45.21484375 C38.3475779 43.28591026 38.3475779 43.28591026 38.37937927 41.31800842 C38.43466176 37.89364096 38.48404361 34.4692125 38.53222656 31.04473877 C38.58239665 27.55255686 38.6381061 24.0604639 38.69335938 20.56835938 C38.8010164 13.71231667 38.90244449 6.85619367 39 0 C39.33 0 39.66 0 40 0 C40 20.13 40 40.26 40 61 C51.22 61 62.44 61 74 61 C74 52.75 74 44.5 74 36 C74.33 36 74.66 36 75 36 C75.19582583 40.31216481 75.38027074 44.6247409 75.5625 48.9375 C75.61857422 50.16919922 75.67464844 51.40089844 75.73242188 52.66992188 C75.78076172 53.83974609 75.82910156 55.00957031 75.87890625 56.21484375 C75.9260376 57.29886475 75.97316895 58.38288574 76.02172852 59.49975586 C76 62 76 62 75 63 C72.47403741 63.23653523 69.96892793 63.42173692 67.4375 63.5625 C66.72658203 63.60568359 66.01566406 63.64886719 65.28320312 63.69335938 C63.52238088 63.79971777 61.7612168 63.90038846 60 64 C61.04272564 65.2717575 61.04272564 65.2717575 63.36083984 65.06591797 C64.38387207 65.04158691 65.4069043 65.01725586 66.4609375 64.9921875 C67.57210938 64.97542969 68.68328125 64.95867187 69.828125 64.94140625 C72.18505822 64.89727865 74.54185722 64.84524643 76.8984375 64.78515625 C78.0121875 64.77097656 79.1259375 64.75679688 80.2734375 64.7421875 C81.29872559 64.7201123 82.32401367 64.69803711 83.38037109 64.67529297 C86 65 86 65 89 68 C5.18 68 -78.64 68 -165 68 C-165 67.34 -165 66.68 -165 66 C-157.84531657 65.24096411 -150.80958493 64.8694782 -143.6171875 64.9375 C-142.67747101 64.94128662 -141.73775452 64.94507324 -140.76956177 64.94897461 C-137.80465784 64.96104898 -134.83985806 64.97966954 -131.875 65 C-127.95573146 65.0267788 -124.03651391 65.04667471 -120.1171875 65.0625 C-119.23570038 65.07079834 -118.35421326 65.07909668 -117.4460144 65.08764648 C-112.55115688 65.10678731 -107.84832374 64.84009058 -103.00369263 64.11889648 C-100.78491912 63.98723738 -99.13176917 64.41046885 -97 65 C-94.82940968 65.08147598 -92.65647149 65.10752942 -90.484375 65.09765625 C-88.60878906 65.09282227 -88.60878906 65.09282227 -86.6953125 65.08789062 C-85.39335938 65.07951172 -84.09140625 65.07113281 -82.75 65.0625 C-81.43257812 65.05798828 -80.11515625 65.05347656 -78.7578125 65.04882812 C-75.50516259 65.03704316 -72.25260416 65.02059011 -69 65 C-69.97791504 63.96033081 -69.97791504 63.96033081 -70.97558594 62.8996582 C-73.3848583 59.44875036 -73.46947299 57.76470001 -73.390625 53.60546875 C-73.37773438 52.40341797 -73.36484375 51.20136719 -73.3515625 49.96289062 C-73.31804687 48.71701172 -73.28453125 47.47113281 -73.25 46.1875 C-73.23195313 44.92228516 -73.21390625 43.65707031 -73.1953125 42.35351562 C-73.14823916 39.23490665 -73.08249094 36.11784027 -73 33 C-72.67 33 -72.34 33 -72 33 C-71.67 28.71 -71.34 24.42 -71 20 C-89.15 20 -107.3 20 -126 20 C-126 33.86 -126 47.72 -126 62 C-126.33 62 -126.66 62 -127 62 C-127 48.14 -127 34.28 -127 20 C-150.76 20 -174.52 20 -199 20 C-199 19.67 -199 19.34 -199 19 C-156.43 19 -113.86 19 -70 19 C-70 32.86 -70 46.72 -70 61 C-46.9 61 -23.8 61 0 61 C0 40.87 0 20.74 0 0 Z " fill="#D8A5B0" transform="translate(621,438)"/>
<path d="M0 0 C12.21 0 24.42 0 37 0 C37 11.88 37 23.76 37 36 C24.79 36 12.58 36 0 36 C0 24.12 0 12.24 0 0 Z " fill="#1F1E46" transform="translate(550,329)"/>
<path d="M0 0 C11.22 0 22.44 0 34 0 C34 11.55 34 23.1 34 35 C22.78 35 11.56 35 0 35 C0 23.45 0 11.9 0 0 Z " fill="#FDFDFD" transform="translate(659,292)"/>
<path d="M0 0 C9.24 0 18.48 0 28 0 C28 64.68 28 129.36 28 196 C27.67 196 27.34 196 27 196 C26.67 132.31 26.34 68.62 26 3 C18.41 3.33 10.82 3.66 3 4 C3.01160156 5.65128906 3.02320313 7.30257812 3.03515625 9.00390625 C3.04453907 11.19010303 3.05363874 13.37630104 3.0625 15.5625 C3.07087891 16.64853516 3.07925781 17.73457031 3.08789062 18.85351562 C3.09111328 19.91376953 3.09433594 20.97402344 3.09765625 22.06640625 C3.10289307 23.03521729 3.10812988 24.00402832 3.11352539 25.00219727 C3 28 3 28 2.50279331 31.25273991 C2.0174764 34.86975044 1.86170945 38.30716983 1.84178162 41.95396423 C1.83437465 42.94911359 1.83437465 42.94911359 1.82681805 43.96436697 C1.81156929 46.1675672 1.80311705 48.3707386 1.79467773 50.57397461 C1.78508926 52.16119638 1.77507862 53.74841566 1.76467896 55.33563232 C1.73772885 59.63051931 1.71666595 63.92541718 1.69667697 68.22034144 C1.67475613 72.71401734 1.64739737 77.20766009 1.62062073 81.7013092 C1.5707761 90.20443166 1.52580685 98.7075726 1.48259836 107.21073109 C1.43315551 116.89392334 1.37826359 126.57708231 1.32291877 136.26024234 C1.20922512 156.17346387 1.10235877 176.08671719 1 196 C0.67 196 0.34 196 0 196 C0 131.32 0 66.64 0 0 Z " fill="#E1DFE6" transform="translate(563,533)"/>
<path d="M0 0 C10.89 0 21.78 0 33 0 C33 24.42 33 48.84 33 74 C14.85 74 -3.3 74 -22 74 C-22 82.25 -22 90.5 -22 99 C-33.22 99 -44.44 99 -56 99 C-56 78.87 -56 58.74 -56 38 C-37.52 38 -19.04 38 0 38 C0 25.46 0 12.92 0 0 Z M2 1 C0.76829508 4.69511476 0.87576624 8.10301341 0.90234375 11.94921875 C0.90335083 12.63423462 0.90435791 13.31925049 0.90539551 14.02502441 C0.91061993 16.57920002 0.92458121 19.13335172 0.9375 21.6875 C0.958125 27.400625 0.97875 33.11375 1 39 C-17.48 39 -35.96 39 -55 39 C-55 58.47 -55 77.94 -55 98 C-44.44 98 -33.88 98 -23 98 C-22.67 89.75 -22.34 81.5 -22 73 C-4.51 72.67 12.98 72.34 31 72 C31 48.57 31 25.14 31 1 C21.43 1 11.86 1 2 1 Z " fill="#110E32" transform="translate(717,400)"/>
<path d="M0 0 C9.57 0 19.14 0 29 0 C29 64.68 29 129.36 29 196 C28.67 196 28.34 196 28 196 C27.67 140.23 27.34 84.46 27 27 C26.67 27 26.34 27 26 27 C26 18.42 26 9.84 26 1 C18.37933446 1.67669732 18.37933446 1.67669732 11 3 C11 2.34 11 1.68 11 1 C8.69 1.33 6.38 1.66 4 2 C3.83211627 3.62487471 3.66573213 5.24990442 3.5 6.875 C3.4071875 7.77992188 3.314375 8.68484375 3.21875 9.6171875 C2.96952705 11.93313211 2.96952705 11.93313211 3 14 C2.34 14 1.68 14 1 14 C1 74.06 1 134.12 1 196 C0.67 196 0.34 196 0 196 C0 131.32 0 66.64 0 0 Z " fill="#B1AABB" transform="translate(626,533)"/>
<path d="M0 0 C0.99 0.33 1.98 0.66 3 1 C3 24.43 3 47.86 3 72 C19.17 72 35.34 72 52 72 C51.96519531 66.97007812 51.93039062 61.94015625 51.89453125 56.7578125 C51.87920792 53.57681135 51.8647665 50.39585552 51.85351562 47.21484375 C51.83556162 42.16250188 51.81429157 37.11032264 51.77368164 32.05810547 C51.74115537 27.98621714 51.7231613 23.91450315 51.71536827 19.84249496 C51.70981259 18.28669361 51.69896404 16.73090212 51.68280983 15.17517471 C51.66112426 13.00084851 51.65802923 10.82724846 51.65942383 8.65283203 C51.65276199 7.41373077 51.64610016 6.17462952 51.63923645 4.89797974 C51.75828842 3.94164642 51.87734039 2.98531311 52 2 C52.99 1.34 53.98 0.68 55 0 C55 24.42 55 48.84 55 74 C36.85 74 18.7 74 0 74 C0 49.58 0 25.16 0 0 Z " fill="#343456" transform="translate(496,254)"/>
<path d="M0 0 C1.98 0.99 1.98 0.99 4 2 C27.43 2.33 50.86 2.66 75 3 C75 64.71 75 126.42 75 190 C74.67 190 74.34 190 74 190 C73.505 108.325 73.505 108.325 73 25 C72.67 25 72.34 25 72 25 C70.66742597 11.3667426 70.66742597 11.3667426 72 5 C70.948125 5.350625 69.89625 5.70125 68.8125 6.0625 C65.01433859 6.99647412 63.65652512 6.82271815 60 6 C59.05382812 6.16371094 58.10765625 6.32742188 57.1328125 6.49609375 C51.56745147 7.36631648 45.97363146 6.80526181 40.375 6.5 C38.15394616 6.37973556 35.93258751 6.26494648 33.7109375 6.15625 C32.73431152 6.10275391 31.75768555 6.04925781 30.75146484 5.99414062 C27.98492426 5.91005067 27.98492426 5.91005067 25.26806641 6.55273438 C23 7 23 7 21 6 C17.52165005 6.00891885 14.05410023 6.13208574 10.578125 6.2578125 C6.63315382 5.97356785 4.31250975 5.13230418 1 3 C0.67 2.01 0.34 1.02 0 0 Z " fill="#885985" transform="translate(137,529)"/>
<path d="M0 0 C1.65 0 3.3 0 5 0 C4.68274428 0.72577838 4.36548857 1.45155676 4.03861904 2.19932842 C0.62898228 11.39352994 1.8621243 22.34221987 1.88647461 32.02807617 C1.88675723 33.6158854 1.88659728 35.20369476 1.8860321 36.79150391 C1.88574706 41.06965335 1.89159619 45.34777433 1.89860606 49.6259172 C1.90488861 54.10887108 1.90544726 58.59182572 1.90663147 63.07478333 C1.9097304 71.54946421 1.91792428 80.02413208 1.92798096 88.49880725 C1.93918691 98.15304858 1.94466381 107.80729055 1.94967639 117.46153677 C1.96010819 137.30769842 1.97767961 157.15384839 2 177 C1.34 177.33 0.68 177.66 0 178 C0 119.26 0 60.52 0 0 Z " fill="#13133D" transform="translate(268,534)"/>
<path d="M0 0 C0 0.99 0 1.98 0 3 C-6.09707282 3.95640358 -11.97514939 4.05322111 -18.14453125 3.9375 C-21.07532269 3.86100067 -21.07532269 3.86100067 -24 5 C-26.37810714 4.8859421 -28.75350965 4.71079914 -31.125 4.5 C-36.22544291 4.09023022 -41.02645457 4.0111257 -46.09765625 4.73828125 C-52.39348221 5.60444211 -58.72973125 4.70650915 -65 4 C-66.13480527 7.60993172 -66.10015767 10.9842327 -66.0625 14.75 C-66.05347656 15.92046875 -66.04445313 17.0909375 -66.03515625 18.296875 C-66.02355469 19.18890625 -66.01195312 20.0809375 -66 21 C-66.66 21 -67.32 21 -68 21 C-68 76.44 -68 131.88 -68 189 C-68.33 189 -68.66 189 -69 189 C-69 127.29 -69 65.58 -69 2 C-47.55 1.67 -26.1 1.34 -4 1 C-2.68 0.67 -1.36 0.34 0 0 Z " fill="#513069" transform="translate(880,531)"/>
<path d="M0 0 C18.81 0 37.62 0 57 0 C57 4.62 57 9.24 57 14 C56.67 14 56.34 14 56 14 C56 10.37 56 6.74 56 3 C54.23011719 3.01160156 52.46023438 3.02320313 50.63671875 3.03515625 C48.32031355 3.04453441 46.00390722 3.05363458 43.6875 3.0625 C42.52025391 3.07087891 41.35300781 3.07925781 40.15039062 3.08789062 C38.47299805 3.09272461 38.47299805 3.09272461 36.76171875 3.09765625 C35.2142395 3.10551147 35.2142395 3.10551147 33.63549805 3.11352539 C31 3 31 3 28 2 C27.0925 2.165 26.185 2.33 25.25 2.5 C21.5890634 3.06322102 18.64561794 2.54009155 15 2 C13.02463255 2.34786708 13.02463255 2.34786708 11 3 C8.33833187 3.38612207 5.67182053 3.6882876 3 4 C3.020625 5.134375 3.04125 6.26875 3.0625 7.4375 C3 11 3 11 2 12 C1.89070332 14.20194529 1.85307086 16.40744854 1.84178162 18.61207581 C1.83437465 19.66078862 1.83437465 19.66078862 1.82681805 20.73068756 C1.81136957 23.09071952 1.80306268 25.45072414 1.79467773 27.81079102 C1.78510497 29.49564864 1.77509526 31.18050383 1.76467896 32.86535645 C1.73755855 37.45397836 1.71658775 42.04261064 1.69667697 46.63126874 C1.67486127 51.42126702 1.64745105 56.2112331 1.62062073 61.00120544 C1.57063393 70.07826698 1.52571739 79.15534632 1.48259836 88.2324428 C1.43327704 98.56360867 1.37834004 108.89474226 1.32291877 119.22587693 C1.20900686 140.48388789 1.10218798 161.74192966 1 183 C0.67 183 0.34 183 0 183 C0 122.61 0 62.22 0 0 Z " fill="#E9C8D2" transform="translate(754,533)"/>
<path d="M0 0 C9.24 0 18.48 0 28 0 C28 5.94 28 11.88 28 18 C27.34 18.33 26.68 18.66 26 19 C26 13.72 26 8.44 26 3 C24.02 3 22.04 3 20 3 C20 2.34 20 1.68 20 1 C19.34 1 18.68 1 18 1 C17.67 1.66 17.34 2.32 17 3 C16.34 3 15.68 3 15 3 C13.14484805 3.13271254 11.29074987 3.28044493 9.4375 3.4375 C7.95056641 3.55931641 7.95056641 3.55931641 6.43359375 3.68359375 C4.0554807 3.74117361 4.0554807 3.74117361 3 5 C2.92500497 6.69638757 2.9168077 8.39583161 2.9375 10.09375 C2.94523437 11.12371094 2.95296875 12.15367187 2.9609375 13.21484375 C2.98027344 14.84099609 2.98027344 14.84099609 3 16.5 C3.02539081 18.63536734 3.04646402 20.77079192 3.0625 22.90625 C3.07410156 23.85822266 3.08570313 24.81019531 3.09765625 25.79101562 C3 28 3 28 2 29 C1.89077567 31.15128154 1.85307612 33.30619744 1.84178162 35.46022034 C1.83684364 36.14302801 1.83190566 36.82583568 1.82681805 37.52933449 C1.81137032 39.83408825 1.80306289 42.13881401 1.79467773 44.44360352 C1.78510491 46.08905283 1.77509519 47.73449966 1.76467896 49.37994385 C1.73755919 53.8611308 1.71658805 58.34232837 1.69667697 62.82355237 C1.67486088 67.50144224 1.64745085 72.17929916 1.62062073 76.85716248 C1.57063446 85.72172779 1.52571773 94.58631133 1.48259836 103.45091242 C1.43327659 113.54024543 1.37833975 123.62954538 1.32291877 133.71884644 C1.20900767 154.47920018 1.10218861 175.23958547 1 196 C0.67 196 0.34 196 0 196 C0 131.32 0 66.64 0 0 Z " fill="#EEEDF3" transform="translate(306,533)"/>
<path d="M0 0 C8.91 0 17.82 0 27 0 C27 6.27 27 12.54 27 19 C26.67 19 26.34 19 26 19 C26 13.72 26 8.44 26 3 C18.08 3 10.16 3 2 3 C2.33 4.65 2.66 6.3 3 8 C2.67 8.99 2.34 9.98 2 11 C2.66 11.33 3.32 11.66 4 12 C3.67 13.093125 3.34 14.18625 3 15.3125 C1.86913351 18.84578884 1.86913351 18.84578884 2 22 C2.66 22.33 3.32 22.66 4 23 C3.6757435 23.5177512 3.35148701 24.0355024 3.01740456 24.56894302 C1.6726082 27.78229265 1.73703461 30.41289035 1.7215271 33.89691162 C1.7157347 34.59044967 1.7099423 35.28398772 1.70397437 35.99854207 C1.68697369 38.32166636 1.68409785 40.64459198 1.68115234 42.96777344 C1.6718542 44.63337186 1.6616857 46.29896562 1.65071106 47.96455383 C1.6233841 52.48689011 1.60825366 57.00919519 1.59528303 61.53159237 C1.5796643 66.25752788 1.55287007 70.98339957 1.5272522 75.70928955 C1.48044213 84.6587473 1.4437088 93.60821702 1.41057932 102.55773473 C1.37237368 112.74630666 1.32295944 122.93481454 1.27259517 133.1233325 C1.16924218 154.08217438 1.07999272 175.0410568 1 196 C0.67 196 0.34 196 0 196 C0 131.32 0 66.64 0 0 Z " fill="#E9E9EE" transform="translate(499,533)"/>
<path d="M0 0 C9.9 0 19.8 0 30 0 C30 64.68 30 129.36 30 196 C29.67 196 29.34 196 29 196 C28.67 139.24 28.34 82.48 28 24 C27.67 24 27.34 24 27 24 C27 17.07 27 10.14 27 3 C23.5659375 3.0309375 23.5659375 3.0309375 20.0625 3.0625 C17.70833668 3.08370868 15.35313555 3.07271741 13 3 C12.67 2.67 12.34 2.34 12 2 C8.54178598 1.74996036 8.54178598 1.74996036 5 2 C4.34 2.66 3.68 3.32 3 4 C3.33 4.66 3.66 5.32 4 6 C3.44140625 8.3828125 3.44140625 8.3828125 2.5625 11.125 C2.27503906 12.03507813 1.98757813 12.94515625 1.69140625 13.8828125 C1.46324219 14.58148437 1.23507812 15.28015625 1 16 C0.67 16 0.34 16 0 16 C0 10.72 0 5.44 0 0 Z " fill="#D1C7D0" transform="translate(372,533)"/>
<path d="M0 0 C0.33 0 0.66 0 1 0 C1 64.68 1 129.36 1 196 C-12.53 196 -26.06 196 -40 196 C-40 195.34 -40 194.68 -40 194 C-27.13 194 -14.26 194 -1 194 C-1.00451172 189.01285889 -1.00902344 184.02571777 -1.01367188 178.88745117 C-1.01929663 160.37252002 -0.92155797 141.85894337 -0.79807091 123.34448647 C-0.76922148 118.98179405 -0.74168616 114.6190933 -0.71398926 110.25639343 C-0.66175761 102.05875668 -0.60840787 93.86112763 -0.5546174 85.66350096 C-0.49325875 76.30374372 -0.43320595 66.94397822 -0.37324238 57.58421195 C-0.25024256 38.38946536 -0.12566936 19.19472929 0 0 Z " fill="#1B183D" transform="translate(696,533)"/>
<path d="M0 0 C12.21 0 24.42 0 37 0 C37 11.88 37 23.76 37 36 C24.79 36 12.58 36 0 36 C0 24.12 0 12.24 0 0 Z M2 1 C2.33 11.89 2.66 22.78 3 34 C13.23 34 23.46 34 34 34 C34.33 23.11 34.66 12.22 35 1 C24.11 1 13.22 1 2 1 Z " fill="#272649" transform="translate(550,329)"/>
<path d="M0 0 C0.33 0 0.66 0 1 0 C1 64.68 1 129.36 1 196 C-5.93 196 -12.86 196 -20 196 C-19.01 195.01 -19.01 195.01 -18 194 C-12.39 194 -6.78 194 -1 194 C-0.67 129.98 -0.34 65.96 0 0 Z " fill="#0F0E39" transform="translate(305,533)"/>
<path d="M0 0 C0.33 0 0.66 0 1 0 C1 11.22 1 22.44 1 34 C-4.02089844 33.99097656 -9.04179687 33.98195313 -14.21484375 33.97265625 C-17.40962073 33.98250277 -20.60412786 33.99440756 -23.79882812 34.01367188 C-28.86163608 34.04400673 -33.92368694 34.06701796 -38.98657227 34.04467773 C-43.07196786 34.0271299 -47.15595723 34.04387681 -51.24118233 34.08367729 C-52.79393659 34.0929191 -54.34681393 34.09013052 -55.89951897 34.07469368 C-64.58936904 33.99674156 -70.97552438 34.30880221 -77.60816956 40.50047302 C-78.0674736 40.99531693 -78.52677765 41.49016083 -79 42 C-79.33 41.34 -79.66 40.68 -80 40 C-74.85714286 34.42857143 -74.85714286 34.42857143 -71 34 C-71 33.34 -71 32.68 -71 32 C-68.12848526 31.23989316 -66.12316792 30.97944689 -63.16972351 31.47229004 C-60.14830478 31.97530955 -57.46446867 32.08086083 -54.40942383 32.00585938 C-53.33843948 31.9825354 -52.26745514 31.95921143 -51.16401672 31.93518066 C-49.45280891 31.88992249 -49.45280891 31.88992249 -47.70703125 31.84375 C-46.52404953 31.81776733 -45.34106781 31.79178467 -44.12223816 31.76501465 C-40.35218116 31.68201643 -36.58235142 31.59183619 -32.8125 31.5 C-27.83995894 31.37937317 -22.86732856 31.26573671 -17.89453125 31.15625 C-16.74765335 31.12607788 -15.60077545 31.09590576 -14.41914368 31.06481934 C-12.82685188 31.02983337 -12.82685188 31.02983337 -11.20239258 30.99414062 C-10.26784744 30.97113892 -9.33330231 30.94813721 -8.37043762 30.92443848 C-6 31 -6 31 -3 32 C-1.89401327 28.68203981 -1.69348787 25.85391476 -1.46484375 22.36328125 C-1.37783203 21.06455078 -1.29082031 19.76582031 -1.20117188 18.42773438 C-1.11319576 17.05599506 -1.02530624 15.6842502 -0.9375 14.3125 C-0.84606586 12.92901244 -0.75427317 11.54554852 -0.66210938 10.16210938 C-0.43787274 6.774956 -0.21732032 3.38760301 0 0 Z " fill="#6C2B64" transform="translate(211,472)"/>
<path d="M0 0 C8.19808482 0.62186327 16.34520089 0.66084534 24.5625 0.5625 C24.2325 1.5525 23.9025 2.5425 23.5625 3.5625 C-4.8175 3.5625 -33.1975 3.5625 -62.4375 3.5625 C-59.52588927 0.65088927 -56.35057248 1.06312848 -52.4375 0.875 C-51.33148437 0.80442383 -51.33148437 0.80442383 -50.203125 0.73242188 C-44.70920567 0.42664717 -44.70920567 0.42664717 -42.4375 1.5625 C-40.89136986 1.47598369 -39.34840613 1.32247364 -37.8125 1.125 C-36.99523437 1.02316406 -36.17796875 0.92132813 -35.3359375 0.81640625 C-34.70945312 0.73261719 -34.08296875 0.64882813 -33.4375 0.5625 C-33.4375 1.2225 -33.4375 1.8825 -33.4375 2.5625 C-29.96808454 2.10427532 -26.76354951 1.67118317 -23.4375 0.5625 C-21.27945067 0.49558374 -19.14224128 0.56378394 -16.984375 0.625 C-14.29480577 0.61508087 -14.29480577 0.61508087 -11.10546875 0.03515625 C-7.25547895 -0.46095532 -3.86435007 -0.32038112 0 0 Z " fill="#FCB8BD" transform="translate(773.4375,502.4375)"/>
<path d="M0 0 C0.33 0 0.66 0 1 0 C1.19386492 2.64551056 1.38038267 5.29117783 1.5625 7.9375 C1.61857422 8.69224609 1.67464844 9.44699219 1.73242188 10.22460938 C1.86176157 12.14745958 1.93516912 14.07389548 2 16 C1.67 16.33 1.34 16.66 1 17 C0.89075727 19.16394766 0.85307478 21.33151028 0.84178162 23.4981842 C0.83684364 24.18507543 0.83190566 24.87196665 0.82681805 25.57967275 C0.81137013 27.89824607 0.80306283 30.21679154 0.79467773 32.53540039 C0.78510493 34.19070178 0.77509521 35.8460007 0.76467896 37.501297 C0.73755903 42.00934269 0.71658797 46.51739894 0.69667697 51.02548146 C0.67486098 55.73139843 0.6474509 60.43728264 0.62062073 65.14317322 C0.57063433 74.06086259 0.52571764 82.97857008 0.48259836 91.89629501 C0.4332767 102.04608623 0.37833983 112.1958446 0.32291877 122.34560406 C0.20900747 143.23037211 0.10218845 164.11517152 0 185 C-0.33 185 -0.66 185 -1 185 C-1.02335056 161.61727045 -1.0409898 138.23454264 -1.05181217 114.85180378 C-1.05697053 103.99502994 -1.06400451 93.13826334 -1.07543945 82.28149414 C-1.0854003 72.81978751 -1.09185678 63.35808613 -1.09408849 53.8963744 C-1.09539321 48.88554847 -1.09846403 43.87473753 -1.10573006 38.8639164 C-1.11251234 34.14853808 -1.11461244 29.43318096 -1.11310768 24.71779823 C-1.11338301 22.98639816 -1.11537505 21.25499739 -1.11920547 19.52360153 C-1.12417716 17.16063115 -1.12298541 14.7977409 -1.12025452 12.43476868 C-1.12316736 11.74896219 -1.1260802 11.0631557 -1.12908131 10.3565672 C-1.1178958 6.77815297 -0.84224863 3.48082581 0 0 Z " fill="#EAEAEE" transform="translate(373,544)"/>
<path d="M0 0 C2.71486934 3.97610786 2.22440753 8.13901977 2.125 12.75 C2.11597656 13.54277344 2.10695313 14.33554687 2.09765625 15.15234375 C2.07417012 17.10169281 2.03830137 19.05088575 2 21 C2.80322189 21.00586624 3.60644379 21.01173248 4.43400574 21.01777649 C12.01147135 21.07573117 19.58860919 21.14782341 27.16578197 21.23571491 C31.0611024 21.28040223 34.95631864 21.31966173 38.85180664 21.34643555 C42.61268221 21.37248524 46.3731565 21.4128988 50.13378334 21.46318626 C51.56700961 21.47984384 53.00030528 21.49136505 54.43361473 21.49761391 C56.44438081 21.50726611 58.45501962 21.53703652 60.46557617 21.56762695 C62.18099861 21.58428154 62.18099861 21.58428154 63.93107605 21.60127258 C67.30952292 22.04021451 69.23735435 23.05444849 72 25 C70.515 25.495 70.515 25.495 69 26 C68.34 25.67 67.68 25.34 67 25 C64.84588426 24.87922947 62.68808039 24.82253978 60.53076172 24.79467773 C59.86722687 24.78477814 59.20369202 24.77487854 58.52005005 24.76467896 C56.32329903 24.73305084 54.12652637 24.70830146 51.9296875 24.68359375 C50.40796339 24.66302534 48.886245 24.6420289 47.36453247 24.62062073 C43.3565535 24.56538829 39.34852287 24.51598422 35.3404541 24.46777344 C31.25166213 24.41756695 27.16294532 24.36187644 23.07421875 24.30664062 C15.04954268 24.19904472 7.0248038 24.09760296 -1 24 C-1.02720824 21.31243045 -1.0469388 18.62514202 -1.0625 15.9375 C-1.07087891 15.18533203 -1.07925781 14.43316406 -1.08789062 13.65820312 C-1.10808341 8.99366882 -0.77595959 4.60076827 0 0 Z " fill="#6C295D" transform="translate(812,482)"/>
<path d="M0 0 C22.35749906 -0.1365953 44.65678621 0.17620628 67 1 C67 1.66 67 2.32 67 3 C44.56 3 22.12 3 -1 3 C-0.67 2.01 -0.34 1.02 0 0 Z " fill="#FCB7BC" transform="translate(299,503)"/>
<path d="M0 0 C20.13 0 40.26 0 61 0 C60.67 0.99 60.34 1.98 60 3 C40.2 3 20.4 3 0 3 C0 2.01 0 1.02 0 0 Z " fill="#FCB6BC" transform="translate(225,503)"/>
<path d="M0 0 C9.24 0 18.48 0 28 0 C28 8.91 28 17.82 28 27 C27.67 27 27.34 27 27 27 C26.82754905 25.06300627 26.66242831 23.12535992 26.5 21.1875 C26.4071875 20.10855469 26.314375 19.02960937 26.21875 17.91796875 C25.94151608 12.95251123 26 7.97319083 26 3 C18.41 3.33 10.82 3.66 3 4 C3 6.97 3 9.94 3 13 C2.67 13 2.34 13 2 13 C1.67 18.28 1.34 23.56 1 29 C0.67 29 0.34 29 0 29 C0 19.43 0 9.86 0 0 Z " fill="#F1B8C1" transform="translate(563,533)"/>
<path d="M0 0 C18.48 0 36.96 0 56 0 C55.34 0.99 54.68 1.98 54 3 C51.70944214 3.36076355 51.70944214 3.36076355 48.81591797 3.34057617 C47.19446365 3.34023628 47.19446365 3.34023628 45.54025269 3.33988953 C44.36939117 3.32440567 43.19852966 3.30892181 41.9921875 3.29296875 C40.79643097 3.28872391 39.60067444 3.28447906 38.36868286 3.28010559 C34.53722929 3.26326902 30.70629547 3.22560684 26.875 3.1875 C24.28255966 3.17245964 21.69011111 3.15877011 19.09765625 3.14648438 C12.73159252 3.11334918 6.36583338 3.0631003 0 3 C0 2.01 0 1.02 0 0 Z " fill="#FBAFB8" transform="translate(552,501)"/>
<path d="M0 0 C18.48 0 36.96 0 56 0 C56 3.63 56 7.26 56 11 C55.34 10.67 54.68 10.34 54 10 C54 7.69 54 5.38 54 3 C53.34 3 52.68 3 52 3 C52 2.34 52 1.68 52 1 C51.00484375 1.165 50.0096875 1.33 48.984375 1.5 C45.05558058 2.06182156 41.2198597 2.06377285 37.25 2 C32.02831171 1.87069471 32.02831171 1.87069471 27 3 C24.8350098 3.09485782 22.66706177 3.12988077 20.5 3.125 C19.3553125 3.12757813 18.210625 3.13015625 17.03125 3.1328125 C14 3 14 3 11 2 C10.01 2.495 10.01 2.495 9 3 C7.00039988 3.039992 4.99952758 3.04346799 3 3 C1.94974694 6.15075918 2.06036888 7.53269953 2.5 10.75 C3.00468749 15.1069224 2.83977608 18.70781114 2 23 C1.67 23 1.34 23 1 23 C0.01990968 15.24678549 0 7.89831517 0 0 Z " fill="#FCBCC3" transform="translate(212,533)"/>
<path d="M0 0 C9.24 0 18.48 0 28 0 C28 5.94 28 11.88 28 18 C27.34 18.33 26.68 18.66 26 19 C26 13.72 26 8.44 26 3 C24.02 3 22.04 3 20 3 C20 2.34 20 1.68 20 1 C19.34 1 18.68 1 18 1 C17.67 1.66 17.34 2.32 17 3 C16.34 3 15.68 3 15 3 C13.14484805 3.13271254 11.29074987 3.28044493 9.4375 3.4375 C7.95056641 3.55931641 7.95056641 3.55931641 6.43359375 3.68359375 C4.0554807 3.74117361 4.0554807 3.74117361 3 5 C2.77376479 6.48437809 2.60587035 7.97777425 2.46484375 9.47265625 C2.37783203 10.37177734 2.29082031 11.27089844 2.20117188 12.19726562 C2.0706543 13.61555664 2.0706543 13.61555664 1.9375 15.0625 C1.84662109 16.01189453 1.75574219 16.96128906 1.66210938 17.93945312 C1.43743502 20.29262135 1.21691818 22.64610619 1 25 C0.67 25 0.34 25 0 25 C0 16.75 0 8.5 0 0 Z " fill="#FBC3CB" transform="translate(306,533)"/>
<path d="M0 0 C0.33 0 0.66 0 1 0 C1 14.19 1 28.38 1 43 C13.87 43 26.74 43 40 43 C40 28.81 40 14.62 40 0 C40.33 0 40.66 0 41 0 C41 14.52 41 29.04 41 44 C27.14 44 13.28 44 -1 44 C-2 39 -2 39 -2 37 C-1.34 37 -0.68 37 0 37 C0 24.79 0 12.58 0 0 Z " fill="#C7A4B1" transform="translate(338,457)"/>
<path d="M0 0 C8.91 0 17.82 0 27 0 C27 6.27 27 12.54 27 19 C26.67 19 26.34 19 26 19 C26 13.72 26 8.44 26 3 C18.08 3 10.16 3 2 3 C2.33 4.65 2.66 6.3 3 8 C2.67 8.99 2.34 9.98 2 11 C2.66 11.33 3.32 11.66 4 12 C3.34 14.31 2.68 16.62 2 19 C1.34 19 0.68 19 0 19 C0 12.73 0 6.46 0 0 Z " fill="#FDC0C9" transform="translate(499,533)"/>
<path d="M0 0 C9.57 0 19.14 0 29 0 C29 12.375 29 12.375 28.5 18.1875 C28.36078125 19.84845703 28.36078125 19.84845703 28.21875 21.54296875 C28.1465625 22.35378906 28.074375 23.16460938 28 24 C27.67 24 27.34 24 27 24 C27 17.07 27 10.14 27 3 C23.5659375 3.0309375 23.5659375 3.0309375 20.0625 3.0625 C17.70833668 3.08370868 15.35313555 3.07271741 13 3 C12.67 2.67 12.34 2.34 12 2 C8.54178598 1.74996036 8.54178598 1.74996036 5 2 C4.34 2.66 3.68 3.32 3 4 C3.33 4.66 3.66 5.32 4 6 C3.44140625 8.3828125 3.44140625 8.3828125 2.5625 11.125 C2.27503906 12.03507813 1.98757813 12.94515625 1.69140625 13.8828125 C1.46324219 14.58148437 1.23507812 15.28015625 1 16 C0.67 16 0.34 16 0 16 C0 10.72 0 5.44 0 0 Z " fill="#FCC0C7" transform="translate(372,533)"/>
<path d="M0 0 C1.65 0 3.3 0 5 0 C4.52414711 1.08428535 4.52414711 1.08428535 4.03868103 2.19047546 C0.89288398 10.69953046 1.86428268 20.82472065 1.90234375 29.76171875 C1.9037587 31.03352493 1.90517365 32.30533112 1.90663147 33.61567688 C1.91124496 36.95778389 1.92019148 40.29981937 1.93133545 43.64190674 C1.94165996 47.06790558 1.94615247 50.49391188 1.95117188 53.91992188 C1.96214078 60.61330059 1.97883323 67.30664618 2 74 C1.67 74 1.34 74 1 74 C0.14756852 64.77560526 -0.13537461 55.64736797 -0.09765625 46.38671875 C-0.09578475 45.03766432 -0.09436432 43.68860919 -0.09336853 42.33955383 C-0.08960086 38.83637523 -0.07982176 35.33323994 -0.06866455 31.83007812 C-0.05832476 28.23633408 -0.05384435 24.64258285 -0.04882812 21.04882812 C-0.03819261 14.03253467 -0.0211879 7.0162702 0 0 Z " fill="#151338" transform="translate(268,534)"/>
<path d="M0 0 C17.35003107 -0.18768062 34.66358184 0.39261151 52 1 C52 1.66 52 2.32 52 3 C45.07665012 3.07595711 38.15340737 3.12856051 31.22973633 3.16479492 C28.87357569 3.17989747 26.51744323 3.20038091 24.16137695 3.22631836 C20.77808688 3.26263656 17.39516792 3.27971167 14.01171875 3.29296875 C12.42722176 3.31619453 12.42722176 3.31619453 10.81071472 3.33988953 C9.33952934 3.34022942 9.33952934 3.34022942 7.83862305 3.34057617 C6.54289619 3.35056892 6.54289619 3.35056892 5.22099304 3.36076355 C2.54817322 2.92660822 1.67659887 2.0701729 0 0 Z " fill="#FCB7BC" transform="translate(401,503)"/>
<path d="M0 0 C8.91 0 17.82 0 27 0 C27.07770711 9.09173238 27.07262083 17.95933872 26 27 C25.67 27 25.34 27 25 27 C25 18.42 25 9.84 25 1 C17.37933446 1.67669732 17.37933446 1.67669732 10 3 C10 2.34 10 1.68 10 1 C7.69 1.33 5.38 1.66 3 2 C2.83211627 3.62487471 2.66573213 5.24990442 2.5 6.875 C2.4071875 7.77992188 2.314375 8.68484375 2.21875 9.6171875 C1.96952705 11.93313211 1.96952705 11.93313211 2 14 C1.34 14 0.68 14 0 14 C0 9.38 0 4.76 0 0 Z " fill="#FBC8CF" transform="translate(627,533)"/>
<path d="M0 0 C9.57 0 19.14 0 29 0 C29 5.28 29 10.56 29 16 C27 12 27 12 27 1 C19.08 1.33 11.16 1.66 3 2 C2.02095872 9.06764713 2.02095872 9.06764713 2.5 15.5625 C3.10659304 19.92382714 2.7098081 23.66228383 2 28 C1.67 28 1.34 28 1 28 C0.0051509 18.61999421 -0.08122061 9.42159114 0 0 Z " fill="#FCCDD3" transform="translate(436,533)"/>
<path d="M0 0 C8.91 0 17.82 0 27 0 C27 5.94 27 11.88 27 18 C26.67 18 26.34 18 26 18 C26 13.05 26 8.1 26 3 C25.01 3 24.02 3 23 3 C23 2.34 23 1.68 23 1 C21.700625 1.4640625 21.700625 1.4640625 20.375 1.9375 C14.42986735 3.67303562 8.14860618 3.67594031 2 4 C2 5.98 2 7.96 2 10 C1.34 10 0.68 10 0 10 C0 6.7 0 3.4 0 0 Z " fill="#FCC3CB" transform="translate(697,533)"/>
<path d="M0 0 C0.66 0 1.32 0 2 0 C3.14192694 6.13645327 2.9601286 11.96558364 2.66015625 18.18359375 C2.61434921 19.23909927 2.56854218 20.2946048 2.52134705 21.38209534 C2.37447918 24.73419945 2.21862168 28.08581541 2.0625 31.4375 C1.96099372 33.71807256 1.86007584 35.99867139 1.75976562 38.27929688 C1.51332283 43.85318681 1.2595094 49.42670395 1 55 C0.67 55 0.34 55 0 55 C0 36.85 0 18.7 0 0 Z " fill="#1F1839" transform="translate(724,534)"/>
<path d="M0 0 C6.93 0 13.86 0 21 0 C21 0.33 21 0.66 21 1 C15.01382212 2.43172239 9.1278791 2.06189777 3 2 C2.67 9.59 2.34 17.18 2 25 C1.34 25 0.68 25 0 25 C0 16.75 0 8.5 0 0 Z " fill="#FBE8EA" transform="translate(696,474)"/>
<path d="M0 0 C5.28 0.33 10.56 0.66 16 1 C15.67 1.66 15.34 2.32 15 3 C12.53125 3.37890625 12.53125 3.37890625 9.5 3.5625 C5.93669646 3.49321033 5.93669646 3.49321033 3 5 C2.77376479 6.48437809 2.60587035 7.97777425 2.46484375 9.47265625 C2.37783203 10.37177734 2.29082031 11.27089844 2.20117188 12.19726562 C2.0706543 13.61555664 2.0706543 13.61555664 1.9375 15.0625 C1.84662109 16.01189453 1.75574219 16.96128906 1.66210938 17.93945312 C1.43743502 20.29262135 1.21691818 22.64610619 1 25 C0.67 25 0.34 25 0 25 C0 16.75 0 8.5 0 0 Z " fill="#F7BAC2" transform="translate(306,533)"/>
<path d="M0 0 C13.2 0 26.4 0 40 0 C40 3.63 40 7.26 40 11 C39.34 10.67 38.68 10.34 38 10 C38 7.69 38 5.38 38 3 C37.34 3 36.68 3 36 3 C36 2.34 36 1.68 36 1 C34.98993896 1.16749756 33.97987793 1.33499512 32.93920898 1.50756836 C29.18262277 1.97717074 25.74958692 2.02998348 21.97265625 1.87890625 C20.04389648 1.80639648 20.04389648 1.80639648 18.07617188 1.73242188 C16.73827544 1.67591872 15.40038487 1.6192764 14.0625 1.5625 C12.69728806 1.50918787 11.33205364 1.45644834 9.96679688 1.40429688 C6.64426693 1.2751526 3.32207839 1.1402083 0 1 C0 0.67 0 0.34 0 0 Z " fill="#FECED6" transform="translate(228,533)"/>
<path d="M0 0 C12.54 0 25.08 0 38 0 C37.67 2.31 37.34 4.62 37 7 C36.505 5.02 36.505 5.02 36 3 C35.34 3 34.68 3 34 3 C34 2.34 34 1.68 34 1 C22.78 1 11.56 1 0 1 C0 0.67 0 0.34 0 0 Z " fill="#28183A" transform="translate(334,533)"/>
<path d="M0 0 C0.33 0 0.66 0 1 0 C1.19386492 2.64551056 1.38038267 5.29117783 1.5625 7.9375 C1.61857422 8.69224609 1.67464844 9.44699219 1.73242188 10.22460938 C1.86176157 12.14745958 1.93516912 14.07389548 2 16 C1.67 16.33 1.34 16.66 1 17 C0.76472227 19.34987262 0.58613583 21.70556039 0.4375 24.0625 C0.35371094 25.35285156 0.26992188 26.64320313 0.18359375 27.97265625 C0.12300781 28.97167969 0.06242187 29.97070312 0 31 C-0.33 31 -0.66 31 -1 31 C-1.02908633 26.77084783 -1.04682792 22.54172148 -1.0625 18.3125 C-1.07087891 17.11431641 -1.07925781 15.91613281 -1.08789062 14.68164062 C-1.09111328 13.52470703 -1.09433594 12.36777344 -1.09765625 11.17578125 C-1.10289307 10.11270752 -1.10812988 9.04963379 -1.11352539 7.9543457 C-1.00716844 5.1865491 -0.62894788 2.69207103 0 0 Z " fill="#F5DDE2" transform="translate(373,544)"/>
<path d="M0 0 C1.65 0 3.3 0 5 0 C4.6803125 0.70769531 4.360625 1.41539062 4.03125 2.14453125 C2.65311875 5.96049317 2.56153017 9.55073009 2.34375 13.57421875 C2 16 2 16 0 18 C0 12.06 0 6.12 0 0 Z " fill="#3B1533" transform="translate(268,534)"/>
<path d="M0 0 C0.99 0.495 0.99 0.495 2 1 C2.77811718 4.81984796 3.24386556 7.26840331 2 11 C2.66 11.33 3.32 11.66 4 12 C3.34 14.31 2.68 16.62 2 19 C1.34 19 0.68 19 0 19 C0 12.73 0 6.46 0 0 Z " fill="#F7C4CC" transform="translate(499,533)"/>
<path d="M0 0 C0.66 0 1.32 0 2 0 C2.33 5.94 2.66 11.88 3 18 C2.34 18 1.68 18 1 18 C0.67 18.66 0.34 19.32 0 20 C0 13.4 0 6.8 0 0 Z " fill="#642352" transform="translate(811,534)"/>
<path d="M0 0 C4.62 0 9.24 0 14 0 C13.01 1.485 13.01 1.485 12 3 C8.7421875 3.29296875 8.7421875 3.29296875 4.875 3.1875 C2.95300781 3.14689453 2.95300781 3.14689453 0.9921875 3.10546875 C0.00476563 3.07066406 -0.98265625 3.03585937 -2 3 C-1.34 2.67 -0.68 2.34 0 2 C0 1.34 0 0.68 0 0 Z " fill="#FAB3BA" transform="translate(667,501)"/>
<path d="M0 0 C0.33 0 0.66 0 1 0 C1 7.59 1 15.18 1 23 C-0.98 23 -2.96 23 -5 23 C-4.67 22.34 -4.34 21.68 -4 21 C-3.34 21 -2.68 21 -2 21 C-1.24722485 18.26750659 -0.83358297 15.71899317 -0.68359375 12.890625 C-0.64169922 12.13652344 -0.59980469 11.38242187 -0.55664062 10.60546875 C-0.51732422 9.82816406 -0.47800781 9.05085938 -0.4375 8.25 C-0.39431641 7.45722656 -0.35113281 6.66445313 -0.30664062 5.84765625 C-0.20097009 3.89862185 -0.10002034 1.94933252 0 0 Z " fill="#FCD2D5" transform="translate(810,483)"/>
<path d="M0 0 C1.65 0 3.3 0 5 0 C4.01 1.485 4.01 1.485 3 3 C3.33 3.66 3.66 4.32 4 5 C3.44140625 7.3828125 3.44140625 7.3828125 2.5625 10.125 C2.27503906 11.03507813 1.98757813 11.94515625 1.69140625 12.8828125 C1.46324219 13.58148437 1.23507812 14.28015625 1 15 C0.67 15 0.34 15 0 15 C0 10.05 0 5.1 0 0 Z " fill="#F9BBC2" transform="translate(372,534)"/>
<path d="M0 0 C0.66 0 1.32 0 2 0 C2.99956022 5.33098784 3.01467144 9.64991422 2 15 C1.01 15.495 1.01 15.495 0 16 C0 10.72 0 5.44 0 0 Z " fill="#33132F" transform="translate(724,534)"/>
<path d="M0 0 C0.99 0.495 0.99 0.495 2 1 C2 1.66 2 2.32 2 3 C2.66 3.33 3.32 3.66 4 4 C3.68289063 4.53109375 3.36578125 5.0621875 3.0390625 5.609375 C1.7629651 8.54535848 1.58292979 11.06174329 1.375 14.25 C1.30023438 15.32765625 1.22546875 16.4053125 1.1484375 17.515625 C1.09945313 18.33546875 1.05046875 19.1553125 1 20 C0.67 20 0.34 20 0 20 C0 13.4 0 6.8 0 0 Z " fill="#F4E0E5" transform="translate(499,552)"/>
<path d="M0 0 C0.33 0 0.66 0 1 0 C1.19412181 1.47831221 1.38012131 2.95769316 1.5625 4.4375 C1.66691406 5.26121094 1.77132813 6.08492187 1.87890625 6.93359375 C1.91886719 7.61550781 1.95882813 8.29742188 2 9 C1.67 9.33 1.34 9.66 1 10 C0.76472227 12.34987262 0.58613583 14.70556039 0.4375 17.0625 C0.35371094 18.35285156 0.26992188 19.64320313 0.18359375 20.97265625 C0.12300781 21.97167969 0.06242187 22.97070312 0 24 C-0.33 24 -0.66 24 -1 24 C-1.02712325 21.12493579 -1.04689851 18.25013092 -1.0625 15.375 C-1.07087891 14.56675781 -1.07925781 13.75851562 -1.08789062 12.92578125 C-1.1058955 8.49658082 -0.89622662 4.36116576 0 0 Z " fill="#F2E2E6" transform="translate(307,552)"/>
<path d="M0 0 C0.99 0 1.98 0 3 0 C3 0.66 3 1.32 3 2 C1.02866014 3.37535339 -0.97681922 4.70211044 -3 6 C-4.68083079 7.31543279 -6.3524116 8.64316249 -8 10 C-8.33 9.34 -8.66 8.68 -9 8 C-3.85714286 2.42857143 -3.85714286 2.42857143 0 2 C0 1.34 0 0.68 0 0 Z " fill="#632B67" transform="translate(140,504)"/>
<path d="M0 0 C0.99 0.33 1.98 0.66 3 1 C3.33 1.99 3.66 2.98 4 4 C-0.95 4 -5.9 4 -11 4 C-11 3.67 -11 3.34 -11 3 C-9.5437328 2.63743142 -8.08488815 2.28520207 -6.625 1.9375 C-5.40683594 1.64166016 -5.40683594 1.64166016 -4.1640625 1.33984375 C-2 1 -2 1 0 2 C0 1.34 0 0.68 0 0 Z " fill="#FBB8BC" transform="translate(390,502)"/>
<path d="M0 0 C0.33 0 0.66 0 1 0 C1.33692785 1.60341555 1.66941093 3.20776555 2 4.8125 C2.185625 5.70582031 2.37125 6.59914063 2.5625 7.51953125 C3 10 3 10 3 13 C2.34 13 1.68 13 1 13 C-0.80098121 9.17291493 -1.28143104 6.22146566 -1 2 C-0.67 1.34 -0.34 0.68 0 0 Z " fill="#5B2A69" transform="translate(131,515)"/>
<path d="M0 0 C1.32 0 2.64 0 4 0 C4 3.3 4 6.6 4 10 C3.34 9.67 2.68 9.34 2 9 C2 6.69 2 4.38 2 2 C1.34 2 0.68 2 0 2 C0 1.34 0 0.68 0 0 Z " fill="#FBBFC4" transform="translate(264,534)"/>
<path d="M0 0 C2.46254526 2.1413437 3.69050349 3.69870394 4 7 C3.01 8.485 3.01 8.485 2 10 C1.46987262 8.71211992 0.9511671 7.41953322 0.4375 6.125 C0.14746094 5.40570312 -0.14257812 4.68640625 -0.44140625 3.9453125 C-1 2 -1 2 0 0 Z " fill="#5C275E" transform="translate(886,509)"/>
</svg>
